<?xml version="1.0" encoding="utf-8"?>
<!-- Generator: Adobe Illustrator 27.5.0, SVG Export Plug-In . SVG Version: 6.00 Build 0)  -->
<svg version="1.1" id="Layer_1" xmlns="http://www.w3.org/2000/svg" xmlns:xlink="http://www.w3.org/1999/xlink" x="0px" y="0px"
	 viewBox="0 0 367.835 503.817" style="enable-background:new 0 0 367.835 503.817;" xml:space="preserve">
<g>
	<path style="fill:#452F13;" d="M332.939,257.174c-4.454-12.864-11.216-24.459-17.074-36.677
		c-6.394-13.333-8.224-27.367-8.918-41.993c-0.379-7.983-0.816-15.946-1.544-23.906c-0.15-1.642-0.332-3.278-0.527-4.912
		c0.622-0.32,1.143-0.877,1.163-1.522c0.362-11.797-5.371-22.616-10.663-32.792c-5.344-10.275-10.19-20.634-17.238-29.907
		c-14.275-18.784-35.164-30.859-58.451-34.487c-24.51-3.819-49.015,1.745-72.003,10.15c-12.015,4.393-23.683,9.722-34.939,15.796
		c-10.134,5.467-19.924,11.792-28.167,19.897c-4.667,4.589-8.869,9.791-11.852,15.64c-2.937,5.758-4.765,11.943-6.244,18.214
		c-1.653,7.009-2.875,14.083-3.342,21.277c-0.357,5.503-2.323,11.857-0.063,17.147c0.092,0.216,0.265,0.311,0.458,0.323
		c-3.049,16.15-6.572,32.334-12.106,47.826c-5.668,15.866-13.207,30.949-20.307,46.2c-3.198,6.87-6.677,13.779-9.133,20.958
		c-1.937,5.662-3.117,11.61-3.748,17.554c-1.359,12.802-0.762,28.566,7.563,39.142c0.759,0.964,2.862-0.237,2.441-1.375
		c-2.689-7.28-3.179-15.155-2.709-22.984c0.065,0.955,0.142,1.91,0.248,2.865c1.111,10.07,4.66,19.742,9.316,28.695
		c4.604,8.854,10.73,17.029,19.613,21.888c0.963,0.527,3.305-0.91,2.275-1.953c-5.655-5.725-9.417-13.37-11.954-20.924
		c-1.28-3.812-2.383-7.941-2.873-12.106c2.401,10.742,6.948,20.92,14.466,29.202c11.438,12.601,27.589,18.596,43.975,21.643
		c20.806,3.869,42.098,3.027,63.118,1.915c11.524-0.61,23.072-1.555,34.464-3.381c6.583-0.215,13.158-0.739,19.652-1.572
		c25.881-3.321,53.61-11.797,71.954-31.313c3.878-4.126,7.472-8.683,10.201-13.683c-2.865,10.081-7.723,19.822-12.151,29.301
		c-0.51,1.092,0.88,1.477,1.64,1.151c13.859-5.941,22.105-19.717,27.643-33.084c4.366-10.536,7.558-21.405,8.658-32.561
		c0.028,0.851,0.043,1.702,0.038,2.552c-0.022,4.269-0.415,8.527-0.356,12.798c0.048,3.407,0.03,7.659,2.172,10.52
		c0.622,0.831,1.847,0.143,2.292-0.502C344.083,307.668,340.639,279.412,332.939,257.174z M65.739,152.838
		c0.871-6.262,1.636-12.438,3.068-18.611c0.844-3.641,1.778-7.225,2.908-10.714c-1.135,5.871-2.275,11.74-3.255,17.644
		c-1.402,8.449-2.812,16.9-4.373,25.321C63.578,161.962,65.124,157.251,65.739,152.838z"/>
	<path style="opacity:0.56;fill:#523929;" d="M289.155,328.82c3.584-12.319,5.897-25.379,5.09-38.247
		c-0.022-0.345,0.507-0.491,0.661-0.179c2.714,5.507,4.037,11.84,3.785,18.029c2.547-10.154,4.508-20.464,5.551-30.884
		c2.123-21.191,0.371-43.141-9.157-62.476c-4.732-9.603-10.967-18.24-17.655-26.558c1.253,2.091,2.35,4.272,3.221,6.555
		c0.163,0.428-0.523,0.611-0.684,0.189c-0.992-2.6-2.296-5.063-3.785-7.411c-3.322-5.24-7.487-9.937-11.957-14.222
		c-4.041-3.873-8.406-7.542-13.099-10.604c-9.01-5.88-19.457-9.282-29.988-11.174c-21.578-3.876-44.565-2.156-65.381,4.646
		c-22.472,7.342-43.319,20.005-59.143,37.659c-15.189,16.946-26.628,37.498-33.36,59.218c-6.694,21.595-8.74,45.133-2.482,67.082
		c0.11,0.387-0.455,0.626-0.648,0.273c-4.402-8.017-6.223-17.098-7.615-26.063c-2.757,11.661-0.911,24.131,2,35.576
		c1.343,5.279,2.99,10.479,4.837,15.603c0.903,2.504,1.782,5.015,2.977,7.396c2.543,5.065,5.421,9.974,8.338,14.83
		c2.266,3.771,4.586,7.524,7.045,11.181c7.25,3.216,15.046,5.355,22.896,6.815c20.806,3.869,42.098,3.027,63.118,1.915
		c11.524-0.61,23.072-1.555,34.464-3.381c6.583-0.215,13.158-0.739,19.652-1.572c18.594-2.386,38.142-7.433,54.478-17.323
		C279.935,354.495,285.382,341.791,289.155,328.82z"/>
	<g>
		<g>
			<g>
				<path style="fill:#EFB291;" d="M274.016,356.938c0,0-36.039-17.751-49.487-29.585s-9.682-76.92-9.682-76.92H188.49h-9.144
					h-26.357c0,0,3.765,65.086-9.682,76.92s-49.487,29.585-49.487,29.585s29.39,48.685,57.073,74.382
					c0,0,7.169,11.115,33.026,10.607c25.857,0.507,33.026-10.607,33.026-10.607C244.627,405.623,274.016,356.938,274.016,356.938z"
					/>
				<path style="opacity:0.44;fill:#EB936D;" d="M274.016,356.938c0,0-36.039-17.751-49.487-29.585s-9.682-76.92-9.682-76.92H188.49
					h-9.144h-26.357c0,0,3.765,65.086-9.682,76.92s-49.487,29.585-49.487,29.585s29.39,48.685,57.073,74.382
					c0,0,7.169,11.115,33.026,10.607c25.857,0.507,33.026-10.607,33.026-10.607C244.627,405.623,274.016,356.938,274.016,356.938z"
					/>
				<path style="opacity:0.44;fill:#EB936D;" d="M153.46,273.312c2.44,1.15,4.859,2.441,7.44,3.245
					c5.774,1.8,11.742,2.843,17.75,3.466c5.592,0.58,11.187,0.883,16.795,0.348c5.343-0.51,10.619-1.71,15.64-3.608
					c1.12-0.424,2.223-0.889,3.313-1.381c-0.192-13.856,0.448-24.948,0.448-24.948h-61.859
					C152.988,250.433,153.566,260.437,153.46,273.312z"/>
				<path style="opacity:0.44;fill:#EB936D;" d="M224.529,327.354c-3.175-2.794-5.39-8.556-6.922-15.728
					c-6.306,2.285-12.343,5.346-17.714,9.377c-6.516,4.891-11.85,11.221-15.353,18.59c-0.136,0.286-0.58,0.195-0.655-0.086
					c-0.95-3.542-2.544-6.872-4.622-9.89c-3.77-5.475-9.02-9.845-14.767-13.123c-4.408-2.514-9.175-4.428-14.108-5.646
					c-1.537,7.532-3.795,13.611-7.083,16.505c-13.448,11.834-49.487,29.585-49.487,29.585s29.389,48.685,57.073,74.382
					c0,0,7.169,11.115,33.026,10.607c25.857,0.507,33.026-10.607,33.026-10.607c27.683-25.696,57.073-74.382,57.073-74.382
					S237.977,339.188,224.529,327.354z"/>
			</g>
			<g>
				<path style="fill:#C32F1D;" d="M324.39,364.684c-11.706-8.428-83.347-31.372-83.347-31.372l-6.087-2.809l-51.038,28.094
					l-51.038-28.094l-6.087,2.809c0,0-71.641,22.944-83.347,31.372C31.739,373.113,6.922,440.539,5.518,496.26h81.006h194.788
					h81.006C360.913,440.539,336.096,373.113,324.39,364.684z"/>
				<path style="fill:#972318;" d="M133.581,305.452c0,0,15.92,6.087,33.245,18.261c17.325,12.174,17.325,35.118,17.325,35.118
					c0.234,0.234-37.225-14.281-57.36-25.519C126.792,333.312,130.07,307.091,133.581,305.452z"/>
				<path style="fill:#972318;" d="M234.253,305.452c0,0-15.92,6.087-33.245,18.261c-17.325,12.174-17.325,35.118-17.325,35.118
					c-0.234,0.234,37.225-14.281,57.36-25.519C241.043,333.312,237.765,307.091,234.253,305.452z"/>
				<g>
					<path style="fill:#FFFFFF;" d="M92.606,392.528c-0.225-1.388-0.809-2.765-1.798-3.781c-0.619-0.636-1.36-1.079-2.163-1.399
						c1.509-1.782,2.362-4.115,2.47-6.439c0.068-1.469-0.152-2.98-0.723-4.34c-0.602-1.431-1.674-2.613-2.955-3.476
						c-1.332-0.897-2.912-1.475-4.522-1.549c-1.647-0.076-3.122,0.472-4.461,1.402c-0.285,0.198-0.559,0.412-0.829,0.633
						c0.091-0.841,0.112-1.694,0.037-2.562c-0.308-3.591-2.923-6.94-6.502-7.778c-3.762-0.881-7.461,1.467-9.573,4.448
						c-1.059,1.494-1.781,3.247-2.021,5.066c-0.008,0.06-0.011,0.12-0.018,0.18c-0.131-0.083-0.263-0.166-0.396-0.243
						c-1.304-0.758-2.803-1.259-4.326-1.173c-1.489,0.084-2.888,0.669-4.034,1.618c-2.547,2.108-3.924,5.505-3.45,8.786
						c0.36,2.496,1.792,4.707,3.729,6.285c-2.202,1.189-3.891,3.206-4.396,5.727c-0.681,3.399,0.815,6.816,3.202,9.203
						c2.26,2.259,5.619,4.088,8.895,3.289c1.427-0.348,2.689-1.133,3.738-2.165c-0.014,0.828,0.091,1.649,0.413,2.412
						c1.19,2.816,4.532,4.193,7.384,4.531c3.012,0.357,6.374-0.389,8.732-2.359c1.019-0.851,1.942-1.968,2.281-3.276
						c0.321-1.238,0.29-2.542,0.13-3.802c-0.004-0.035-0.013-0.069-0.017-0.103c0.223,0.133,0.45,0.261,0.682,0.379
						c1.265,0.642,2.694,1.092,4.126,0.905c1.565-0.205,2.905-1.227,3.89-2.41C92.006,398.286,93.081,395.465,92.606,392.528z"/>
					<path style="fill:#D4953C;" d="M67.884,370.471c0.019-0.117-0.175-0.05-0.192,0.041c-0.953,5.016-0.424,10.472,1.145,15.312
						c0.063,0.196,0.393,0.02,0.351-0.154C67.986,380.69,67.056,375.594,67.884,370.471z"/>
					<path style="fill:#D4953C;" d="M70.684,371.586c0.029-0.201-0.303-0.087-0.33,0.07c-0.665,3.944-0.411,7.917-0.317,11.893
						c0.009,0.365,0.591,0.168,0.586-0.124C70.559,379.488,70.131,375.506,70.684,371.586z"/>
					<path style="fill:#D4953C;" d="M83.003,377.583c-1.152,0.577-2.186,1.338-3.227,2.091c-0.993,0.719-1.987,1.431-2.94,2.204
						c-1.877,1.522-3.717,3.215-4.972,5.302c-0.227,0.378,0.325,0.409,0.51,0.148c1.378-1.946,3.043-3.657,4.869-5.185
						c0.87-0.728,1.777-1.407,2.683-2.089c1.018-0.767,2.025-1.556,3.157-2.151C83.297,377.79,83.264,377.452,83.003,377.583z"/>
					<path style="fill:#D4953C;" d="M84.644,381.425c-1.843-0.055-3.475,1.332-4.997,2.191c-1.027,0.58-2.029,1.204-3.022,1.841
						c-1.029,0.66-2.097,1.29-3.069,2.032c-0.302,0.23-0.18,0.738,0.238,0.522c1.967-1.017,3.736-2.432,5.637-3.568
						c0.78-0.465,1.555-0.933,2.329-1.408c0.814-0.499,1.712-1.054,2.697-1.066C84.757,381.966,85.057,381.438,84.644,381.425z"/>
					<path style="fill:#D4953C;" d="M66.993,385.672c-0.522-0.935-1.396-1.671-2.206-2.36c-0.87-0.741-1.795-1.41-2.747-2.04
						c-1.003-0.664-1.999-1.347-3.03-1.966c-0.454-0.273-0.915-0.552-1.398-0.772c-0.591-0.268-1.211-0.445-1.733-0.845
						c-0.055-0.042-0.16,0.054-0.102,0.107c0.397,0.352,0.854,0.59,1.317,0.844c0.522,0.286,1.02,0.615,1.507,0.955
						c0.982,0.684,1.951,1.389,2.923,2.087c0.876,0.628,1.735,1.285,2.547,1.994c0.865,0.754,1.592,1.655,2.48,2.375
						C66.752,386.213,67.116,385.892,66.993,385.672z"/>
					<path style="fill:#D4953C;" d="M66.999,386.524c-1.872-1.417-4.082-2.4-6.238-3.302c-2.223-0.93-4.461-2.087-6.826-2.601
						c-0.147-0.032-0.356,0.224-0.168,0.27c2.281,0.563,4.402,1.746,6.531,2.715c2.17,0.987,4.198,2.158,6.207,3.436
						C66.785,387.22,67.308,386.757,66.999,386.524z"/>
					<path style="fill:#D4953C;" d="M67.527,388.893c-5.575,0.512-10.197,4.219-14.838,6.98c-0.065,0.039-0.031,0.138,0.045,0.099
						c4.778-2.424,9.231-5.645,14.655-6.411C67.72,389.514,67.991,388.85,67.527,388.893z"/>
					<path style="fill:#D4953C;" d="M66.389,390.582c-4.263,2.557-7.923,6.013-12.286,8.417c-0.157,0.086-0.134,0.34,0.061,0.24
						c4.454-2.293,8.355-5.484,12.575-8.157C67.184,390.801,66.829,390.318,66.389,390.582z"/>
					<path style="fill:#D4953C;" d="M68.871,391.516c0.043-0.418-0.603-0.16-0.66,0.14c-0.489,2.603-0.645,5.273-0.632,7.92
						c0.013,2.597,0.299,5.183,0.898,7.711c0.042,0.179,0.342,0.018,0.315-0.138C67.882,401.945,68.339,396.728,68.871,391.516z"/>
					<path style="fill:#D4953C;" d="M73.188,405.897c-1.388-4.424,0.349-9.465-2.166-13.59c-0.196-0.322-0.798,0.113-0.629,0.441
						c2.143,4.164,0.785,9.035,2.354,13.342C72.835,406.332,73.256,406.114,73.188,405.897z"/>
					<path style="fill:#D4953C;" d="M87.158,393.762c-1.527-2.129-3.973-3.262-6.442-3.922c-2.503-0.669-5.164-1.04-7.751-1.16
						c-0.238-0.011-0.6,0.461-0.253,0.527c2.473,0.465,4.995,0.523,7.449,1.13c2.469,0.611,4.945,1.669,6.49,3.78
						C86.829,394.36,87.334,394.007,87.158,393.762z"/>
					<path style="fill:#D4953C;" d="M84.716,397.25c-0.466-0.246-0.759-0.674-1.126-1.037c-0.412-0.408-0.872-0.768-1.353-1.091
						c-0.995-0.669-2.092-1.175-3.184-1.663c-1.153-0.515-2.327-0.983-3.485-1.486c-1.185-0.515-2.322-1.128-3.52-1.61
						c-0.177-0.071-0.447,0.205-0.275,0.354c0.922,0.796,2.044,1.274,3.151,1.759c1.188,0.521,2.395,0.994,3.591,1.494
						c1.15,0.481,2.304,0.983,3.351,1.666c0.512,0.334,0.994,0.709,1.428,1.139c0.344,0.341,0.681,0.657,1.135,0.843
						C84.605,397.691,84.925,397.36,84.716,397.25z"/>
					<path style="fill:#418258;" d="M77.085,384.128c-1.037-2.225-3.379-3.734-5.803-3.962c-2.623-0.247-5.04,1.218-6.971,2.835
						c-0.209,0.175-0.459,0.492-0.264,0.771c0.005,0.007,0.012,0.011,0.017,0.018c-0.219,0.278-0.425,0.566-0.6,0.878
						c-1.845,3.294-0.883,8.11,2.508,10c2.818,1.57,6.459,0.884,8.897-1.096c1.239-1.006,2.232-2.341,2.664-3.893
						C78.032,387.886,77.87,385.812,77.085,384.128z"/>
				</g>
				<g>
					<path style="fill:#FFFFFF;" d="M237.589,398.856c0.353-1.209,0.411-2.546,0.003-3.748c-0.255-0.753-0.684-1.396-1.21-1.963
						c1.906-0.859,3.493-2.416,4.475-4.253c0.621-1.161,1.025-2.467,1.086-3.786c0.064-1.388-0.347-2.757-1.05-3.947
						c-0.731-1.238-1.786-2.314-3.059-2.993c-1.302-0.695-2.705-0.82-4.145-0.585c-0.307,0.05-0.611,0.118-0.913,0.192
						c0.397-0.645,0.743-1.327,1.016-2.056c1.134-3.021,0.31-6.735-2.261-8.79c-2.702-2.16-6.595-1.686-9.45-0.091
						c-1.431,0.8-2.69,1.939-3.584,3.317c-0.029,0.045-0.055,0.093-0.084,0.139c-0.074-0.118-0.148-0.235-0.226-0.349
						c-0.762-1.114-1.781-2.097-3.045-2.614c-1.236-0.505-2.592-0.571-3.883-0.246c-2.87,0.723-5.291,2.939-6.171,5.773
						c-0.67,2.156-0.364,4.494,0.594,6.516c-2.237,0.113-4.379,1.093-5.758,2.936c-1.859,2.485-1.966,5.823-0.955,8.671
						c0.956,2.696,2.968,5.468,5.923,6.083c1.288,0.268,2.61,0.119,3.855-0.31c-0.33,0.664-0.561,1.368-0.595,2.108
						c-0.122,2.734,2.049,5.134,4.224,6.505c2.297,1.449,5.302,2.14,7.966,1.456c1.152-0.296,2.327-0.843,3.105-1.77
						c0.736-0.877,1.213-1.943,1.569-3.023c0.01-0.03,0.016-0.06,0.026-0.09c0.129,0.194,0.263,0.384,0.405,0.569
						c0.775,1.006,1.757,1.92,2.987,2.32c1.343,0.437,2.82,0.126,4.072-0.45C234.887,403.279,236.842,401.414,237.589,398.856z"/>
					<path style="fill:#D4953C;" d="M226.099,371.51c0.06-0.087-0.122-0.108-0.171-0.041c-2.701,3.688-4.375,8.3-4.97,12.817
						c-0.024,0.183,0.309,0.167,0.342,0.011C222.248,379.809,223.457,375.332,226.099,371.51z"/>
					<path style="fill:#D4953C;" d="M227.933,373.49c0.101-0.152-0.212-0.187-0.293-0.07c-2.056,2.932-3.38,6.241-4.835,9.491
						c-0.134,0.298,0.413,0.364,0.522,0.125C224.79,379.828,225.977,376.445,227.933,373.49z"/>
					<path style="fill:#D4953C;" d="M235.581,383.079c-1.153,0.022-2.282,0.239-3.413,0.447c-1.079,0.199-2.157,0.392-3.225,0.65
						c-2.103,0.507-4.243,1.167-6.06,2.371c-0.329,0.218,0.105,0.456,0.355,0.316c1.863-1.042,3.868-1.785,5.932-2.316
						c0.984-0.253,1.978-0.453,2.973-0.656c1.118-0.228,2.236-0.479,3.38-0.523C235.739,383.361,235.842,383.074,235.581,383.079z"
						/>
					<path style="fill:#D4953C;" d="M235.428,386.817c-1.468-0.754-3.322-0.262-4.883-0.153c-1.054,0.074-2.104,0.192-3.151,0.325
						c-1.085,0.137-2.191,0.235-3.262,0.461c-0.333,0.07-0.429,0.527-0.009,0.513c1.981-0.065,3.956-0.527,5.93-0.713
						c0.809-0.076,1.616-0.156,2.424-0.241c0.851-0.09,1.789-0.193,2.59,0.177C235.311,387.298,235.757,386.986,235.428,386.817z"/>
					<path style="fill:#D4953C;" d="M219.527,383.454c-0.062-0.957-0.485-1.888-0.874-2.757c-0.418-0.934-0.908-1.83-1.435-2.706
						c-0.555-0.923-1.097-1.858-1.692-2.756c-0.262-0.396-0.527-0.799-0.833-1.162c-0.374-0.444-0.807-0.826-1.075-1.35
						c-0.028-0.055-0.151-0.018-0.123,0.047c0.185,0.438,0.463,0.806,0.739,1.189c0.312,0.432,0.587,0.889,0.851,1.352
						c0.53,0.931,1.042,1.874,1.559,2.813c0.466,0.845,0.907,1.707,1.291,2.593c0.408,0.943,0.649,1.951,1.09,2.874
						C219.124,383.798,219.541,383.679,219.527,383.454z"/>
					<path style="fill:#D4953C;" d="M219.204,384.144c-0.967-1.866-2.376-3.512-3.771-5.07c-1.439-1.608-2.802-3.404-4.516-4.73
						c-0.107-0.083-0.374,0.044-0.24,0.154c1.627,1.333,2.886,3.107,4.233,4.709c1.374,1.634,2.562,3.361,3.694,5.167
						C218.762,384.625,219.363,384.452,219.204,384.144z"/>
					<path style="fill:#D4953C;" d="M218.718,386.263c-4.703-1.733-9.866-0.516-14.68-0.071c-0.068,0.006-0.078,0.099-0.002,0.097
						c4.795-0.12,9.634-1.009,14.314,0.46C218.635,386.839,219.109,386.406,218.718,386.263z"/>
					<path style="fill:#D4953C;" d="M217.148,387.19c-4.43,0.426-8.719,1.81-13.171,2.073c-0.16,0.009-0.24,0.223-0.043,0.217
						c4.483-0.139,8.865-1.216,13.305-1.751C217.706,387.672,217.605,387.146,217.148,387.19z"/>
					<path style="fill:#D4953C;" d="M218.795,388.9c0.196-0.322-0.426-0.362-0.587-0.141c-1.398,1.916-2.552,4.014-3.56,6.158
						c-0.989,2.104-1.754,4.304-2.243,6.579c-0.035,0.161,0.269,0.146,0.307,0.01C213.979,396.949,216.357,392.907,218.795,388.9z"
						/>
					<path style="fill:#D4953C;" d="M216.746,402.186c0.582-4.11,3.926-7.516,3.482-11.818c-0.035-0.335-0.688-0.216-0.678,0.114
						c0.129,4.19-2.844,7.605-3.234,11.691C216.294,402.401,216.718,402.387,216.746,402.186z"/>
					<path style="fill:#D4953C;" d="M232.71,397.756c-0.415-2.309-1.955-4.166-3.697-5.65c-1.766-1.504-3.774-2.829-5.818-3.922
						c-0.188-0.1-0.663,0.142-0.407,0.328c1.82,1.328,3.836,2.346,5.585,3.782c1.76,1.445,3.354,3.253,3.79,5.554
						C232.214,398.113,232.758,398.022,232.71,397.756z"/>
					<path style="fill:#D4953C;" d="M229.394,399.635c-0.282-0.378-0.354-0.837-0.51-1.272c-0.176-0.488-0.41-0.957-0.674-1.403
						c-0.547-0.924-1.239-1.756-1.934-2.57c-0.734-0.86-1.502-1.69-2.245-2.543c-0.76-0.872-1.442-1.806-2.225-2.657
						c-0.115-0.126-0.441-0.006-0.359,0.18c0.439,0.998,1.162,1.817,1.87,2.635c0.76,0.878,1.553,1.725,2.327,2.59
						c0.744,0.832,1.484,1.682,2.067,2.637c0.285,0.467,0.53,0.955,0.715,1.47c0.147,0.408,0.297,0.793,0.593,1.119
						C229.134,399.949,229.52,399.805,229.394,399.635z"/>
					<path style="fill:#418258;" d="M228.278,386.091c0.019-2.197-1.293-4.319-3.164-5.437c-2.025-1.21-4.543-0.956-6.726-0.393
						c-0.237,0.061-0.561,0.221-0.51,0.521c0.001,0.008,0.005,0.014,0.007,0.021c-0.284,0.14-0.562,0.294-0.823,0.479
						c-2.76,1.952-3.836,6.215-1.823,9.048c1.673,2.354,4.88,3.201,7.613,2.54c1.389-0.336,2.705-1.033,3.652-2.121
						C227.596,389.494,228.264,387.754,228.278,386.091z"/>
				</g>
				<g>
					<path style="fill:#FFFFFF;" d="M168.847,465.071c0.321-1.1,0.374-2.317,0.003-3.411c-0.232-0.685-0.622-1.27-1.101-1.786
						c1.734-0.782,3.178-2.199,4.072-3.87c0.565-1.056,0.933-2.245,0.988-3.445c0.059-1.263-0.316-2.508-0.956-3.592
						c-0.665-1.126-1.625-2.105-2.783-2.724c-1.185-0.633-2.461-0.746-3.772-0.532c-0.279,0.046-0.556,0.107-0.831,0.175
						c0.362-0.587,0.676-1.207,0.925-1.871c1.032-2.749,0.282-6.129-2.057-7.999c-2.459-1.966-6.001-1.535-8.599-0.082
						c-1.302,0.728-2.448,1.764-3.261,3.018c-0.027,0.041-0.05,0.084-0.076,0.126c-0.067-0.107-0.135-0.214-0.206-0.318
						c-0.694-1.014-1.62-1.908-2.771-2.379c-1.125-0.46-2.358-0.52-3.533-0.224c-2.612,0.658-4.814,2.675-5.615,5.253
						c-0.609,1.962-0.331,4.09,0.541,5.929c-2.036,0.103-3.985,0.995-5.239,2.672c-1.692,2.262-1.789,5.299-0.869,7.891
						c0.87,2.453,2.7,4.975,5.39,5.535c1.172,0.244,2.375,0.108,3.508-0.283c-0.301,0.604-0.511,1.245-0.541,1.918
						c-0.111,2.488,1.864,4.672,3.844,5.92c2.09,1.318,4.825,1.947,7.249,1.324c1.048-0.269,2.118-0.767,2.825-1.611
						c0.67-0.798,1.104-1.768,1.428-2.751c0.009-0.027,0.015-0.055,0.023-0.082c0.118,0.176,0.239,0.35,0.368,0.518
						c0.706,0.915,1.598,1.747,2.718,2.111c1.222,0.398,2.566,0.115,3.705-0.409C166.388,469.096,168.168,467.398,168.847,465.071z"
						/>
					<path style="fill:#D4953C;" d="M158.392,440.187c0.055-0.079-0.111-0.098-0.156-0.037c-2.458,3.356-3.981,7.553-4.522,11.663
						c-0.022,0.166,0.282,0.152,0.312,0.01C154.887,447.738,155.988,443.664,158.392,440.187z"/>
					<path style="fill:#D4953C;" d="M160.061,441.988c0.092-0.138-0.193-0.17-0.267-0.064c-1.871,2.668-3.076,5.679-4.399,8.636
						c-0.122,0.272,0.376,0.331,0.475,0.114C157.201,447.756,158.281,444.677,160.061,441.988z"/>
					<path style="fill:#D4953C;" d="M167.02,450.714c-1.049,0.02-2.077,0.218-3.106,0.407c-0.982,0.181-1.963,0.357-2.934,0.591
						c-1.913,0.462-3.861,1.062-5.514,2.158c-0.299,0.198,0.096,0.415,0.323,0.288c1.695-0.948,3.519-1.624,5.398-2.108
						c0.895-0.23,1.8-0.412,2.705-0.597c1.018-0.207,2.034-0.435,3.076-0.476C167.164,450.97,167.258,450.71,167.02,450.714z"/>
					<path style="fill:#D4953C;" d="M166.881,454.115c-1.336-0.686-3.023-0.238-4.443-0.139c-0.959,0.067-1.914,0.175-2.868,0.296
						c-0.988,0.125-1.994,0.214-2.969,0.419c-0.303,0.064-0.391,0.479-0.008,0.467c1.803-0.059,3.6-0.48,5.396-0.649
						c0.736-0.069,1.471-0.142,2.206-0.219c0.774-0.082,1.628-0.175,2.357,0.161C166.775,454.553,167.181,454.269,166.881,454.115z"
						/>
					<path style="fill:#D4953C;" d="M152.411,451.055c-0.057-0.871-0.442-1.718-0.795-2.509c-0.38-0.85-0.826-1.665-1.306-2.463
						c-0.505-0.839-0.999-1.691-1.54-2.508c-0.238-0.36-0.479-0.727-0.758-1.057c-0.341-0.404-0.735-0.751-0.979-1.229
						c-0.026-0.05-0.137-0.016-0.112,0.043c0.169,0.398,0.421,0.733,0.673,1.082c0.284,0.393,0.535,0.809,0.774,1.23
						c0.482,0.847,0.948,1.705,1.418,2.559c0.424,0.769,0.826,1.553,1.175,2.359c0.372,0.858,0.591,1.775,0.992,2.616
						C152.045,451.368,152.425,451.26,152.411,451.055z"/>
					<path style="fill:#D4953C;" d="M152.117,451.683c-0.88-1.698-2.162-3.195-3.431-4.614c-1.309-1.463-2.55-3.098-4.109-4.305
						c-0.097-0.075-0.34,0.04-0.218,0.14c1.48,1.214,2.626,2.827,3.852,4.285c1.25,1.487,2.332,3.058,3.362,4.702
						C151.716,452.121,152.263,451.964,152.117,451.683z"/>
					<path style="fill:#D4953C;" d="M151.676,453.611c-4.28-1.577-8.978-0.469-13.359-0.065c-0.062,0.006-0.071,0.09-0.001,0.089
						c4.363-0.109,8.767-0.918,13.025,0.419C151.6,454.135,152.031,453.742,151.676,453.611z"/>
					<path style="fill:#D4953C;" d="M150.246,454.455c-4.031,0.387-7.934,1.647-11.985,1.886c-0.145,0.009-0.218,0.203-0.039,0.198
						c4.08-0.126,8.066-1.106,12.107-1.594C150.755,454.894,150.663,454.415,150.246,454.455z"/>
					<path style="fill:#D4953C;" d="M151.745,456.011c0.178-0.293-0.387-0.329-0.534-0.128c-1.272,1.743-2.322,3.653-3.24,5.604
						c-0.9,1.914-1.596,3.917-2.041,5.986c-0.032,0.147,0.245,0.133,0.28,0.009C147.363,463.335,149.527,459.658,151.745,456.011z"
						/>
					<path style="fill:#D4953C;" d="M149.882,468.101c0.529-3.74,3.573-6.839,3.168-10.754c-0.031-0.305-0.626-0.196-0.617,0.104
						c0.118,3.813-2.588,6.92-2.943,10.638C149.47,468.297,149.855,468.284,149.882,468.101z"/>
					<path style="fill:#D4953C;" d="M164.408,464.07c-0.377-2.101-1.779-3.791-3.364-5.141c-1.607-1.369-3.434-2.574-5.295-3.569
						c-0.171-0.091-0.603,0.129-0.37,0.299c1.656,1.208,3.49,2.134,5.083,3.441c1.602,1.315,3.052,2.96,3.449,5.054
						C163.957,464.395,164.451,464.312,164.408,464.07z"/>
					<path style="fill:#D4953C;" d="M161.39,465.78c-0.257-0.344-0.322-0.762-0.464-1.157c-0.16-0.444-0.373-0.87-0.613-1.276
						c-0.498-0.841-1.127-1.598-1.759-2.339c-0.668-0.783-1.367-1.538-2.043-2.314c-0.691-0.794-1.312-1.643-2.025-2.418
						c-0.105-0.114-0.401-0.005-0.327,0.164c0.399,0.908,1.058,1.653,1.702,2.398c0.691,0.799,1.413,1.57,2.118,2.357
						c0.677,0.757,1.35,1.53,1.881,2.4c0.26,0.425,0.482,0.87,0.651,1.338c0.134,0.371,0.271,0.722,0.54,1.018
						C161.154,466.065,161.505,465.934,161.39,465.78z"/>
					<path style="fill:#418258;" d="M160.375,453.455c0.017-2-1.177-3.93-2.88-4.947c-1.843-1.101-4.134-0.87-6.12-0.357
						c-0.215,0.056-0.51,0.201-0.464,0.474c0.001,0.007,0.005,0.012,0.006,0.019c-0.258,0.128-0.511,0.268-0.749,0.436
						c-2.511,1.776-3.49,5.656-1.659,8.233c1.522,2.142,4.441,2.913,6.927,2.311c1.264-0.306,2.462-0.94,3.323-1.93
						C159.755,456.551,160.362,454.968,160.375,453.455z"/>
				</g>
				<g>
					<path style="fill:#72814C;" d="M47.502,416.952c-0.952,1.078-1.736,2.313-2.358,3.607c-2.103,4.378-2.835,9.57-2.29,14.382
						c0.568,5.019,2.999,9.42,6.294,13.141c1.262-2.283,2.617-4.525,3.393-7.034c0.783-2.531,1.209-5.285,1.274-7.932
						c0.058-2.35-0.152-4.791-0.86-7.043c-0.443-1.411-1.078-2.781-1.733-4.103c-0.737-1.488-1.536-3.055-2.701-4.261
						C48.236,417.412,47.897,417.103,47.502,416.952z"/>
					<path style="fill:#72814C;" d="M22.217,433.017c2.225,2.569,5.097,4.631,8.125,6.15c3.065,1.537,6.593,2.756,10.072,2.529
						c-0.261-0.815-0.982-1.422-1.543-2.047c-0.037-0.041-0.074-0.082-0.111-0.123c-1.902-2.421-4.067-4.655-6.67-6.319
						c-2.502-1.599-5.491-3.019-8.456-3.411c-0.712-0.094-1.436-0.135-2.152-0.056c-0.389,0.043-0.876,0.083-1.268,0.251
						C20.699,431.1,21.433,432.112,22.217,433.017z"/>
					<path style="fill:#72814C;" d="M29.653,410.545c-0.622,1.139-1.015,2.403-1.198,3.698c-0.539,3.805,0.512,7.679,2.452,10.947
						c1.807,3.043,4.431,6.057,7.714,7.599c0.045-0.105,0.075-0.206,0.08-0.28c0.151-1.989-0.597-4.035-1.045-5.95
						c-0.528-2.259-1.063-4.525-1.92-6.686c-0.86-2.166-2.014-4.23-3.435-6.078c-0.829-1.078-1.557-2.392-2.634-3.241
						C29.662,410.55,29.657,410.549,29.653,410.545z"/>
				</g>
				<g>
					<path style="fill:#72814C;" d="M126.268,421.898c-1.186-0.346-2.432-0.504-3.664-0.514c-4.17-0.034-8.471,1.295-12.01,3.476
						c-3.692,2.275-6.223,5.772-7.909,9.692c2.235,0.146,4.471,0.38,6.704,0.065c2.252-0.317,4.548-0.992,6.628-1.909
						c1.846-0.814,3.666-1.869,5.158-3.242c0.934-0.86,1.767-1.854,2.555-2.846c0.887-1.116,1.812-2.31,2.323-3.655
						C126.179,422.637,126.295,422.261,126.268,421.898z"/>
					<path style="fill:#72814C;" d="M104.547,408.125c-1.183,2.668-1.735,5.652-1.809,8.56c-0.074,2.943,0.268,6.129,1.716,8.749
						c0.538-0.501,0.745-1.283,1.026-1.947c0.018-0.044,0.036-0.088,0.055-0.131c1.186-2.362,2.13-4.861,2.472-7.491
						c0.328-2.528,0.339-5.369-0.44-7.816c-0.187-0.588-0.42-1.165-0.743-1.693c-0.176-0.286-0.384-0.65-0.659-0.893
						C105.482,406.246,104.964,407.186,104.547,408.125z"/>
					<path style="fill:#72814C;" d="M124.723,405.69c-1.112-0.067-2.238,0.09-3.311,0.42c-3.153,0.972-5.779,3.204-7.609,5.906
						c-1.704,2.516-3.087,5.656-3.085,8.77c0.098-0.003,0.188-0.017,0.247-0.04c1.6-0.609,2.916-1.938,4.241-2.986
						c1.562-1.236,3.127-2.479,4.493-3.935c1.368-1.459,2.55-3.111,3.466-4.89c0.535-1.038,1.29-2.084,1.556-3.231
						C124.722,405.699,124.722,405.695,124.723,405.69z"/>
				</g>
				<g>
					<path style="fill:#72814C;" d="M242.676,462.524c0.183,1.427,0.595,2.831,1.159,4.15c1.906,4.467,5.33,8.439,9.307,11.201
						c4.149,2.881,9.061,3.953,14.032,3.927c-0.885-2.454-1.678-4.95-3.054-7.187c-1.388-2.257-3.178-4.393-5.126-6.186
						c-1.729-1.592-3.704-3.043-5.864-3.995c-1.353-0.597-2.802-1.022-4.228-1.401c-1.605-0.426-3.31-0.858-4.984-0.777
						C243.505,462.275,243.05,462.327,242.676,462.524z"/>
					<path style="fill:#72814C;" d="M238.094,492.128c3.399,0.02,6.842-0.781,9.98-2.058c3.176-1.292,6.418-3.142,8.54-5.908
						c-0.785-0.341-1.717-0.198-2.557-0.188c-0.055,0.001-0.11,0.002-0.166,0.003c-3.075-0.166-6.181-0.009-9.149,0.852
						c-2.852,0.827-5.89,2.14-8.138,4.112c-0.54,0.474-1.048,0.992-1.46,1.582c-0.224,0.321-0.515,0.713-0.646,1.119
						C235.652,492.007,236.897,492.121,238.094,492.128z"/>
					<path style="fill:#72814C;" d="M226.094,471.726c0.447,1.218,1.139,2.347,1.991,3.338c2.507,2.913,6.113,4.676,9.85,5.37
						c3.479,0.647,7.476,0.659,10.799-0.793c-0.049-0.103-0.106-0.192-0.157-0.245c-1.396-1.424-3.428-2.21-5.164-3.136
						c-2.047-1.092-4.104-2.183-6.294-2.962c-2.195-0.781-4.509-1.272-6.835-1.422c-1.357-0.087-2.826-0.406-4.174-0.155
						C226.104,471.723,226.099,471.725,226.094,471.726z"/>
				</g>
				<g>
					<path style="fill:#72814C;" d="M340.273,428.668c-1.409-0.29-2.87-0.355-4.302-0.251c-4.844,0.353-9.712,2.302-13.615,5.168
						c-4.071,2.989-6.68,7.287-8.269,11.997c2.609-0.041,5.227,0.019,7.79-0.556c2.585-0.58,5.187-1.58,7.515-2.84
						c2.067-1.119,4.08-2.516,5.682-4.249c1.004-1.086,1.876-2.318,2.698-3.544c0.924-1.38,1.886-2.853,2.353-4.462
						C340.239,429.534,340.338,429.086,340.273,428.668z"/>
					<path style="fill:#72814C;" d="M313.758,414.726c-1.122,3.208-1.482,6.725-1.293,10.108c0.191,3.424,0.889,7.09,2.816,9.995
						c0.577-0.632,0.745-1.559,1.008-2.357c0.017-0.053,0.034-0.105,0.051-0.158c1.155-2.854,2.015-5.844,2.164-8.93
						c0.143-2.966-0.113-6.265-1.248-9.032c-0.273-0.665-0.598-1.313-1.022-1.895c-0.231-0.316-0.508-0.719-0.849-0.975
						C314.666,412.456,314.154,413.596,313.758,414.726z"/>
					<path style="fill:#72814C;" d="M336.951,409.997c-1.298,0.027-2.59,0.315-3.804,0.8c-3.569,1.425-6.407,4.264-8.277,7.573
						c-1.741,3.081-3.05,6.857-2.755,10.471c0.113-0.013,0.216-0.038,0.283-0.069c1.8-0.858,3.203-2.525,4.642-3.866
						c1.697-1.582,3.397-3.173,4.845-4.992c1.451-1.823,2.667-3.852,3.564-6.003c0.523-1.255,1.301-2.541,1.501-3.898
						C336.951,410.008,336.95,410.003,336.951,409.997z"/>
				</g>
				<g>
					<path style="fill:#72814C;" d="M108.349,344.581c-0.172,1.428-0.117,2.89,0.105,4.308c0.752,4.799,3.096,9.489,6.275,13.142
						c3.315,3.81,7.814,6.055,12.64,7.249c-0.256-2.596-0.413-5.211-1.198-7.717c-0.792-2.528-2.004-5.038-3.452-7.254
						c-1.286-1.967-2.844-3.858-4.704-5.311c-1.165-0.91-2.466-1.678-3.755-2.396c-1.451-0.807-2.999-1.644-4.641-1.976
						C109.215,344.544,108.76,344.482,108.349,344.581z"/>
					<path style="fill:#72814C;" d="M96.645,372.158c3.29,0.853,6.825,0.921,10.18,0.453c3.396-0.474,6.992-1.472,9.729-3.633
						c-0.678-0.523-1.616-0.613-2.433-0.81c-0.054-0.013-0.108-0.025-0.161-0.038c-2.94-0.915-5.99-1.525-9.078-1.418
						c-2.967,0.103-6.235,0.63-8.898,1.99c-0.64,0.327-1.259,0.704-1.804,1.176c-0.296,0.256-0.674,0.565-0.901,0.927
						C94.308,371.44,95.486,371.857,96.645,372.158z"/>
					<path style="fill:#72814C;" d="M90.016,349.435c0.134,1.291,0.528,2.555,1.112,3.725c1.715,3.439,4.779,6.033,8.231,7.623
						c3.214,1.481,7.086,2.473,10.663,1.88c-0.022-0.112-0.055-0.212-0.092-0.276c-1.004-1.723-2.781-2.984-4.237-4.307
						c-1.716-1.56-3.443-3.123-5.375-4.416c-1.937-1.296-4.059-2.34-6.277-3.055c-1.294-0.418-2.64-1.087-4.009-1.174
						C90.027,349.434,90.022,349.435,90.016,349.435z"/>
				</g>
				<g>
					<path style="fill:#72814C;" d="M246.001,338.708c1.143,0.607,2.195,1.398,3.128,2.291c3.158,3.021,5.418,7.163,6.483,11.388
						c1.111,4.407,0.457,8.883-1.14,13.061c-1.786-1.523-3.637-2.982-5.085-4.85c-1.461-1.884-2.692-4.069-3.585-6.277
						c-0.793-1.961-1.389-4.083-1.506-6.204c-0.074-1.329,0.027-2.684,0.16-4.005c0.149-1.487,0.326-3.06,0.925-4.444
						C245.529,339.328,245.716,338.961,246.001,338.708z"/>
					<path style="fill:#72814C;" d="M270.728,354.362c-1.06,2.869-2.826,5.515-4.896,7.753c-2.095,2.265-4.68,4.409-7.682,5.32
						c-0.038-0.769,0.377-1.509,0.652-2.213c0.018-0.046,0.037-0.092,0.055-0.139c0.835-2.642,1.951-5.208,3.617-7.435
						c1.601-2.139,3.669-4.282,6.042-5.551c0.57-0.305,1.167-0.568,1.795-0.728c0.341-0.087,0.764-0.208,1.147-0.19
						C271.399,352.267,271.101,353.352,270.728,354.362z"/>
				</g>
				<g>
					<path style="fill:#72814C;" d="M161.88,373.323c-0.543,1.332-0.876,2.757-1.035,4.183c-0.541,4.827,0.483,9.969,2.584,14.332
						c2.192,4.55,5.939,7.902,10.279,10.328c0.438-2.572,0.977-5.135,0.882-7.76c-0.096-2.647-0.603-5.388-1.415-7.908
						c-0.721-2.237-1.725-4.472-3.136-6.365c-0.884-1.186-1.935-2.269-2.99-3.302c-1.187-1.162-2.458-2.377-3.955-3.131
						C162.725,373.515,162.303,373.335,161.88,373.323z"/>
					<path style="fill:#72814C;" d="M151.945,404.292c2.948,1.691,6.34,2.69,9.7,3.124c3.401,0.44,7.133,0.426,10.342-0.937
						c-0.516-0.683-1.396-1.018-2.133-1.423c-0.048-0.027-0.097-0.052-0.146-0.079c-2.594-1.658-5.375-3.052-8.382-3.764
						c-2.889-0.684-6.18-1.038-9.108-0.429c-0.704,0.146-1.4,0.347-2.05,0.658c-0.353,0.169-0.8,0.367-1.114,0.656
						C149.879,402.984,150.906,403.697,151.945,404.292z"/>
				</g>
				<g>
					<path style="fill:#72814C;" d="M204.809,430.495c0.543,1.332,0.876,2.757,1.035,4.183c0.541,4.827-0.483,9.97-2.584,14.332
						c-2.192,4.55-5.939,7.902-10.279,10.328c-0.438-2.572-0.977-5.135-0.882-7.759c0.096-2.647,0.603-5.388,1.415-7.908
						c0.721-2.237,1.725-4.472,3.136-6.365c0.884-1.186,1.935-2.269,2.99-3.302c1.187-1.162,2.458-2.377,3.955-3.131
						C203.964,430.688,204.386,430.508,204.809,430.495z"/>
					<path style="fill:#72814C;" d="M223.134,454.94c-2.948,1.691-6.34,2.69-9.7,3.124c-3.401,0.44-7.133,0.426-10.342-0.936
						c0.516-0.683,1.396-1.018,2.133-1.423c0.048-0.027,0.097-0.052,0.146-0.079c2.594-1.658,5.375-3.052,8.382-3.764
						c2.889-0.684,6.18-1.038,9.108-0.429c0.704,0.146,1.4,0.347,2.05,0.658c0.353,0.169,0.799,0.367,1.114,0.656
						C225.199,453.631,224.173,454.344,223.134,454.94z"/>
				</g>
				<g>
					<path style="fill:#72814C;" d="M76.784,443.465c-1.118-1.312-2.457-2.37-3.998-3.141c-0.524-0.262-1.184-0.672-1.798-0.516
						c-0.627,0.159-0.914,0.787-1.03,1.366c-0.392,1.962-0.144,4.161,0.168,6.117c0.323,2.024,0.848,4.036,1.595,5.947
						c0.86,2.202,2.176,4.188,3.786,5.911c0.786,0.842,1.64,1.625,2.524,2.363c0.146,0.122,0.293,0.242,0.441,0.361
						c0.917,1.46,2.398,2.52,3.564,3.772c0.186,0.2,0.534-0.105,0.575-0.292c0.191-0.864,0.097-1.736,0-2.606
						c-0.124-1.102-0.181-2.21-0.262-3.315c-0.163-2.216-0.421-4.402-0.978-6.557C80.5,449.501,79.059,446.134,76.784,443.465z"/>
					<path style="fill:#72814C;" d="M81.292,467.826c-0.376-0.754-0.816-1.436-1.373-2.066c-0.133-0.15-0.316-0.127-0.479-0.02
						c-2.195-2.621-4.612-5.073-7.661-6.7c-3.804-2.029-8.311-2.693-12.547-3.152c-1.551-0.168-3.814-0.462-5.071,0.71
						c-0.2,0.187-0.412,0.505-0.254,0.786c3.982,7.104,11.882,12.697,20.172,12.822c2.357,0.036,4.734-0.381,6.825-1.502
						C81.193,468.548,81.459,468.159,81.292,467.826z"/>
					<path style="fill:#72814C;" d="M128.566,465.163c-1.676-0.527-3.453-0.391-5.183-0.333c-2.109,0.071-4.215,0.234-6.302,0.556
						c-3.925,0.605-7.791,1.803-11.231,3.815c-1.579,0.924-3.069,2.003-4.38,3.279c-0.075-0.022-0.167-0.027-0.28-0.007
						c-0.164,0.029-0.299,0.081-0.454,0.14c-0.345,0.132-0.626,0.656-0.444,1.003c1.697,3.237,6.154,3.642,9.391,3.483
						c1.984-0.097,3.91-0.458,5.764-1.187c2.571-1.01,4.88-2.608,7.043-4.304c1.285-1.007,2.523-2.069,3.744-3.153
						c0.896-0.795,2.127-1.535,2.549-2.708C128.857,465.543,128.801,465.237,128.566,465.163z"/>
					<g>
						<path style="fill:#FFFFFF;" d="M106.138,460.322c-1.311-0.272-2.604-0.172-3.836,0.199c0.472-1.895,0.565-3.957-0.11-5.797
							c-0.743-2.025-2.75-3.64-4.983-3.51c-2.706,0.157-5.015,2.574-6.149,4.87c-0.254,0.513-0.445,1.044-0.587,1.587
							c-0.511-0.612-1.107-1.156-1.753-1.631c-2.471-1.817-5.422-2.454-8.377-1.559c-2.687,0.814-5.315,2.909-5.895,5.777
							c-0.52,2.573,0.471,5.55,1.832,7.729c0.1,0.161,0.211,0.32,0.328,0.479c-1.257,0.616-2.348,1.575-3.035,2.811
							c-0.55,0.989-0.882,2.162-0.79,3.298c0.108,1.322,0.844,2.455,1.81,3.327c1.588,1.435,3.576,2.058,5.66,1.918
							c-0.774,1.375-1.349,3.042-1.012,4.613c0.292,1.361,1.248,2.656,2.23,3.609c4.076,3.955,11.195,3.572,14.917-0.662
							c1.089-1.239,1.812-2.788,1.898-4.435c0.75,0.579,1.59,1.019,2.453,1.25c2.534,0.678,5.224-0.309,7.045-2.118
							c3.359-3.336,3.736-9.368,0.476-12.737c1.285-1.324,2.152-3.186,1.968-5.015C110.011,462.163,108.15,460.74,106.138,460.322z"
							/>
						<path style="fill:#418258;" d="M95.464,464.047c-0.676-0.349-1.349-0.436-2.001-0.347c-1.074-0.291-2.252-0.24-3.3,0.118
							c-1.725,0.59-3.133,1.944-3.98,3.538c-0.83,1.561-1.183,3.437-0.607,5.144c0.451,1.337,1.413,2.435,2.673,3.066
							c4.432,2.218,10.751-1.965,10.316-6.911C98.397,466.742,97.166,464.925,95.464,464.047z"/>
					</g>
				</g>
				<g>
					<path style="fill:#FFFFFF;" d="M260.158,433.088c-0.982-0.486-2.027-0.674-3.079-0.634c0.765-1.404,1.264-3.018,1.109-4.614
						c-0.171-1.757-1.428-3.45-3.223-3.808c-2.175-0.434-4.504,1.004-5.875,2.589c-0.307,0.354-0.568,0.736-0.792,1.136
						c-0.278-0.59-0.638-1.144-1.052-1.654c-1.582-1.949-3.788-3.063-6.314-2.963c-2.296,0.091-4.81,1.208-5.861,3.36
						c-0.943,1.93-0.772,4.493-0.144,6.499c0.046,0.148,0.101,0.297,0.161,0.447c-1.123,0.228-2.185,0.763-2.984,1.6
						c-0.639,0.67-1.145,1.531-1.306,2.449c-0.187,1.069,0.162,2.119,0.747,3.009c0.962,1.464,2.408,2.368,4.088,2.687
						c-0.897,0.929-1.696,2.131-1.753,3.445c-0.05,1.138,0.441,2.362,1.022,3.319c2.412,3.974,8.13,5.139,11.952,2.554
						c1.118-0.757,2.011-1.834,2.419-3.121c0.474,0.613,1.049,1.135,1.685,1.496c1.867,1.06,4.202,0.833,6.017-0.224
						c3.349-1.949,4.892-6.65,3.005-9.99c1.291-0.784,2.362-2.079,2.594-3.566C262.846,435.345,261.666,433.833,260.158,433.088z"/>
					<path style="fill:#418258;" d="M250.935,433.835c-0.464-0.416-0.979-0.623-1.513-0.688c-0.79-0.452-1.734-0.655-2.638-0.587
						c-1.488,0.111-2.882,0.893-3.883,1.981c-0.979,1.065-1.646,2.479-1.542,3.949c0.081,1.152,0.617,2.22,1.485,2.98
						c3.053,2.671,8.921,0.662,9.597-3.345C252.703,436.576,252.102,434.882,250.935,433.835z"/>
				</g>
				<g>
					<path style="fill:#FFFFFF;" d="M142.181,378.421c-0.57-0.282-1.177-0.391-1.788-0.368c0.444-0.815,0.734-1.752,0.644-2.679
						c-0.099-1.021-0.829-2.004-1.871-2.212c-1.263-0.252-2.615,0.583-3.412,1.503c-0.178,0.206-0.33,0.427-0.46,0.66
						c-0.162-0.343-0.37-0.664-0.611-0.96c-0.919-1.132-2.2-1.778-3.666-1.721c-1.333,0.052-2.793,0.701-3.403,1.951
						c-0.548,1.121-0.448,2.609-0.084,3.774c0.027,0.086,0.059,0.173,0.094,0.26c-0.652,0.133-1.269,0.443-1.732,0.929
						c-0.371,0.389-0.665,0.889-0.758,1.422c-0.109,0.621,0.094,1.23,0.434,1.747c0.559,0.85,1.398,1.375,2.374,1.56
						c-0.521,0.54-0.985,1.237-1.018,2c-0.029,0.661,0.256,1.371,0.593,1.927c1.401,2.307,4.721,2.984,6.94,1.483
						c0.649-0.439,1.168-1.065,1.404-1.812c0.275,0.356,0.609,0.659,0.978,0.869c1.084,0.615,2.44,0.484,3.494-0.13
						c1.945-1.132,2.84-3.861,1.745-5.801c0.75-0.455,1.371-1.207,1.506-2.071C143.742,379.732,143.057,378.854,142.181,378.421z"/>
					<path style="fill:#418258;" d="M136.825,378.855c-0.269-0.242-0.568-0.362-0.879-0.399c-0.459-0.262-1.007-0.38-1.532-0.341
						c-0.864,0.064-1.674,0.519-2.255,1.15c-0.569,0.618-0.956,1.439-0.895,2.293c0.047,0.669,0.358,1.289,0.862,1.73
						c1.773,1.551,5.18,0.384,5.573-1.943C137.851,380.447,137.503,379.463,136.825,378.855z"/>
				</g>
				<g>
					<path style="fill:#FFFFFF;" d="M33.785,472.667c-0.764-0.378-1.576-0.524-2.394-0.493c0.595-1.092,0.983-2.347,0.863-3.589
						c-0.133-1.367-1.11-2.683-2.507-2.962c-1.692-0.337-3.503,0.781-4.569,2.013c-0.238,0.275-0.441,0.572-0.616,0.883
						c-0.216-0.459-0.496-0.89-0.818-1.286c-1.23-1.516-2.946-2.382-4.91-2.305c-1.785,0.07-3.741,0.939-4.558,2.613
						c-0.733,1.501-0.6,3.494-0.112,5.055c0.036,0.115,0.079,0.231,0.125,0.348c-0.873,0.178-1.699,0.593-2.32,1.244
						c-0.497,0.521-0.891,1.19-1.016,1.905c-0.146,0.832,0.126,1.648,0.581,2.34c0.748,1.139,1.873,1.842,3.179,2.09
						c-0.698,0.723-1.319,1.657-1.364,2.679c-0.039,0.885,0.343,1.837,0.795,2.581c1.876,3.09,6.323,3.996,9.295,1.986
						c0.87-0.588,1.564-1.427,1.881-2.427c0.369,0.477,0.816,0.883,1.31,1.163c1.452,0.824,3.268,0.648,4.68-0.174
						c2.604-1.516,3.804-5.171,2.337-7.77c1.004-0.609,1.837-1.617,2.017-2.773C35.876,474.422,34.958,473.247,33.785,472.667z"/>
					<path style="fill:#418258;" d="M26.612,473.248c-0.36-0.324-0.761-0.485-1.177-0.535c-0.615-0.351-1.349-0.509-2.052-0.457
						c-1.157,0.086-2.242,0.695-3.02,1.54c-0.762,0.828-1.28,1.928-1.199,3.071c0.063,0.896,0.48,1.727,1.155,2.317
						c2.374,2.077,6.938,0.514,7.463-2.602C27.987,475.379,27.52,474.063,26.612,473.248z"/>
				</g>
				<g>
					<path style="fill:#FFFFFF;" d="M353.147,467.163c-0.98-0.485-2.022-0.672-3.071-0.632c0.763-1.4,1.261-3.01,1.106-4.603
						c-0.17-1.753-1.424-3.442-3.215-3.799c-2.17-0.433-4.493,1.002-5.861,2.583c-0.306,0.353-0.566,0.734-0.79,1.133
						c-0.278-0.589-0.637-1.141-1.049-1.65c-1.578-1.944-3.779-3.055-6.298-2.956c-2.29,0.09-4.798,1.204-5.847,3.351
						c-0.941,1.926-0.77,4.482-0.144,6.484c0.046,0.148,0.101,0.297,0.161,0.446c-1.12,0.228-2.18,0.761-2.976,1.596
						c-0.638,0.668-1.142,1.527-1.303,2.443c-0.187,1.066,0.162,2.113,0.745,3.001c0.96,1.461,2.402,2.363,4.078,2.68
						c-0.895,0.927-1.692,2.126-1.749,3.436c-0.049,1.135,0.439,2.356,1.019,3.311c2.406,3.964,8.11,5.126,11.923,2.547
						c1.116-0.755,2.006-1.83,2.413-3.113c0.473,0.612,1.047,1.132,1.681,1.492c1.863,1.057,4.191,0.831,6.002-0.223
						c3.341-1.945,4.88-6.633,2.997-9.966c1.288-0.782,2.356-2.074,2.587-3.558C355.829,469.414,354.652,467.906,353.147,467.163z"
						/>
					<path style="fill:#418258;" d="M343.947,467.909c-0.462-0.415-0.976-0.622-1.509-0.686c-0.788-0.451-1.73-0.653-2.631-0.586
						c-1.484,0.111-2.875,0.891-3.873,1.976c-0.977,1.062-1.642,2.472-1.538,3.939c0.081,1.15,0.616,2.215,1.481,2.972
						c3.045,2.665,8.899,0.66,9.573-3.337C345.71,470.642,345.111,468.953,343.947,467.909z"/>
				</g>
				<g>
					<path style="fill:#FFFFFF;" d="M323.39,375.449c-0.982-0.486-2.027-0.674-3.079-0.634c0.765-1.404,1.264-3.018,1.109-4.614
						c-0.171-1.758-1.427-3.45-3.223-3.809c-2.175-0.434-4.504,1.004-5.875,2.589c-0.307,0.354-0.568,0.736-0.792,1.136
						c-0.278-0.59-0.638-1.144-1.052-1.654c-1.582-1.949-3.788-3.063-6.314-2.963c-2.296,0.09-4.81,1.207-5.861,3.359
						c-0.943,1.931-0.772,4.493-0.144,6.5c0.046,0.148,0.101,0.297,0.161,0.447c-1.123,0.228-2.185,0.763-2.983,1.6
						c-0.639,0.67-1.145,1.531-1.306,2.449c-0.188,1.069,0.162,2.119,0.747,3.009c0.962,1.464,2.408,2.368,4.088,2.687
						c-0.897,0.929-1.696,2.131-1.753,3.445c-0.05,1.138,0.44,2.362,1.022,3.319c2.412,3.974,8.13,5.139,11.952,2.554
						c1.119-0.757,2.011-1.834,2.419-3.121c0.474,0.613,1.049,1.135,1.685,1.496c1.867,1.06,4.202,0.833,6.017-0.224
						c3.349-1.949,4.892-6.65,3.005-9.99c1.291-0.784,2.362-2.079,2.594-3.566C326.078,377.706,324.898,376.195,323.39,375.449z"/>
					<path style="fill:#418258;" d="M314.167,376.197c-0.464-0.416-0.978-0.623-1.513-0.688c-0.79-0.452-1.734-0.655-2.638-0.587
						c-1.488,0.111-2.882,0.893-3.883,1.981c-0.98,1.065-1.646,2.478-1.542,3.949c0.081,1.152,0.617,2.22,1.485,2.98
						c3.053,2.671,8.921,0.662,9.597-3.346C315.934,378.937,315.334,377.243,314.167,376.197z"/>
				</g>
				<g>
					<path style="fill:#FFFFFF;" d="M293.43,478.214c-0.568-0.281-1.172-0.39-1.78-0.367c0.442-0.812,0.731-1.745,0.641-2.668
						c-0.099-1.016-0.826-1.995-1.864-2.202c-1.258-0.251-2.604,0.581-3.397,1.497c-0.177,0.205-0.328,0.425-0.458,0.657
						c-0.161-0.341-0.369-0.662-0.608-0.956c-0.915-1.127-2.19-1.771-3.651-1.713c-1.328,0.052-2.781,0.698-3.389,1.943
						c-0.545,1.116-0.447,2.598-0.083,3.758c0.027,0.085,0.059,0.172,0.093,0.258c-0.649,0.132-1.264,0.441-1.725,0.925
						c-0.37,0.387-0.662,0.885-0.755,1.416c-0.108,0.618,0.094,1.225,0.432,1.74c0.556,0.847,1.392,1.37,2.364,1.554
						c-0.519,0.537-0.981,1.232-1.014,1.992c-0.029,0.658,0.255,1.366,0.591,1.919c1.395,2.298,4.701,2.971,6.911,1.477
						c0.647-0.438,1.163-1.061,1.398-1.805c0.274,0.355,0.607,0.656,0.974,0.865c1.08,0.613,2.43,0.482,3.479-0.129
						c1.936-1.127,2.828-3.845,1.737-5.777c0.746-0.453,1.366-1.202,1.5-2.062C294.985,479.519,294.302,478.645,293.43,478.214z"/>
					<path style="fill:#418258;" d="M287.222,478.248c-0.457-0.261-1.003-0.378-1.525-0.339c-0.86,0.064-1.667,0.517-2.245,1.145
						c-0.566,0.616-0.952,1.433-0.892,2.284c0.047,0.666,0.357,1.284,0.859,1.723c1.926,1.685,5.79,0.148,5.578-2.596
						C288.64,478.903,287.964,478.338,287.222,478.248z"/>
				</g>
				<g>
					<rect x="181.108" y="358.597" style="fill:#972318;" width="5.619" height="137.625"/>
					<g>
						<g>
							<path style="fill:#972318;" d="M186.29,356.432c-0.008-0.006-0.017-0.008-0.025-0.014c0.042-0.008,0.081-0.078,0.022-0.079
								c-0.057-0.001-0.114,0-0.171-0.002c-0.239-0.105-0.522-0.125-0.774-0.126c-0.371-0.002-0.737,0.065-1.107,0.068
								c-0.042,0-0.079,0.031-0.106,0.066c-2.138,0.058-4.275,0.239-6.413,0.304c-2.89,0.088-5.802,0.154-8.692,0.027
								c-2.873-0.126-5.697-0.56-8.526-1.05c-2.101-0.364-4.872-0.796-6.584,0.828c-0.766,0.727-1.227,1.783-1.161,2.844
								c0.064,1.032,0.634,1.978,1.482,2.561c0.817,0.562,1.822,0.744,2.792,0.827c1.376,0.118,2.768,0.127,4.148,0.14
								c2.907,0.027,5.814-0.066,8.719-0.177c2.9-0.111,5.789-0.279,8.68-0.537c1.181-0.105,2.389-0.157,3.555-0.381
								c1.086-0.209,1.996-0.65,2.785-1.429c0.773-0.764,1.508-1.762,1.651-2.869C186.612,357.074,186.606,356.667,186.29,356.432z"
								/>
							<path style="fill:#972318;" d="M181.331,357.432c0.143,1.107,0.878,2.106,1.651,2.869c0.789,0.779,1.7,1.22,2.785,1.429
								c1.166,0.225,2.374,0.276,3.555,0.381c2.891,0.258,5.781,0.426,8.68,0.537c2.905,0.111,5.811,0.205,8.719,0.177
								c1.38-0.013,2.772-0.022,4.148-0.14c0.97-0.083,1.975-0.264,2.792-0.827c0.848-0.584,1.418-1.53,1.482-2.561
								c0.066-1.061-0.395-2.118-1.161-2.844c-1.712-1.624-4.484-1.192-6.584-0.828c-2.829,0.49-5.653,0.924-8.526,1.05
								c-2.89,0.127-5.801,0.061-8.692-0.027c-2.138-0.065-4.275-0.246-6.413-0.304c-0.027-0.035-0.063-0.066-0.106-0.066
								c-0.37-0.003-0.736-0.07-1.107-0.068c-0.252,0.001-0.535,0.02-0.774,0.126c-0.057,0.001-0.114,0-0.171,0.002
								c-0.059,0.001-0.02,0.071,0.022,0.079c-0.008,0.005-0.018,0.008-0.025,0.014C181.29,356.667,181.285,357.074,181.331,357.432
								z"/>
							<g>
								<path style="fill:#8C8D7C;" d="M190.7,358.854c0.13-0.25,0.226-0.518,0.272-0.809c0.108-0.677-0.027-1.389-0.294-2.013
									c-0.279-0.651-0.715-1.314-1.369-1.633c-0.566-0.276-1.197-0.258-1.806-0.171c0.029-0.16,0.018-0.321-0.078-0.467
									c-0.036-0.055-0.098-0.062-0.16-0.044c-0.593-0.827-1.861-1.01-2.806-0.967c-0.689,0.032-1.362,0.194-2.002,0.444
									c-0.313-0.293-0.904-0.136-1.268-0.042c-0.577,0.148-1.155,0.305-1.695,0.561c-0.973,0.462-1.747,1.333-1.956,2.41
									c-0.052,0.267-0.06,0.552,0.023,0.814c0.05,0.157,0.143,0.339,0.274,0.464c-0.536,0.919-0.966,1.905-1.157,2.953
									c-0.212,1.157-0.192,2.706,0.723,3.571c0.389,0.368,0.898,0.609,1.426,0.697c0.347,0.058,0.749,0.071,1.091-0.054
									c-0.023,0.386,0.174,0.783,0.533,0.969c0.573,0.298,1.279,0.116,1.852-0.086c0.706-0.249,1.372-0.59,2.008-0.982
									c0.764,0.327,1.541,0.527,2.365,0.622c0.786,0.091,1.534,0.125,2.248-0.268c1.283-0.705,2.287-2.156,2.448-3.616
									C191.464,360.374,191.232,359.506,190.7,358.854z"/>
								<g>
									<path style="fill:#C32F1D;" d="M177.932,357.02c-0.063-0.109-0.102-0.231-0.123-0.355
										c-0.048-0.281,0.005-0.573,0.093-0.841c0.178-0.539,0.509-1.074,0.953-1.433c0.535-0.433,1.216-0.665,1.869-0.85
										c0.448-0.127,0.971-0.318,1.446-0.23c-0.416,0.183-0.816,0.404-1.195,0.653c-1.047,0.689-1.946,1.603-2.643,2.643
										c-0.112,0.167-0.22,0.338-0.327,0.51C177.981,357.084,177.952,357.055,177.932,357.02z"/>
									<path style="fill:#C32F1D;" d="M180.164,364.046c-0.041,0.01-0.081,0.033-0.105,0.071c-0.013,0.02-0.019,0.042-0.03,0.062
										c-0.038,0.029-0.08,0.054-0.126,0.073c-0.461,0.19-1.092,0.046-1.527-0.151c-0.462-0.21-0.874-0.567-1.097-1.028
										c-0.269-0.557-0.326-1.263-0.309-1.873c0.035-1.288,0.52-2.515,1.155-3.619c0.592-1.03,1.307-1.974,2.217-2.744
										c1.001-0.848,2.203-1.486,3.509-1.686c0.616-0.094,1.263-0.099,1.871,0.049c0.526,0.128,0.962,0.387,1.362,0.73
										c0.002,0.019,0.007,0.038,0.019,0.057c0.12,0.181-0.006,0.448-0.093,0.616c-0.166,0.32-0.394,0.609-0.625,0.884
										c-0.485,0.576-1.024,1.101-1.551,1.637c-0.677,0.688-1.222,1.513-1.783,2.295c-0.822,1.146-1.536,2.346-2.238,3.567
										c-0.16,0.279-0.32,0.559-0.489,0.832C180.273,363.897,180.222,363.975,180.164,364.046z"/>
									<path style="fill:#C32F1D;" d="M183.528,364.593c-0.622,0.329-1.31,0.662-2.015,0.756
										c-0.337,0.045-0.728,0.017-0.995-0.217c-0.188-0.165-0.322-0.459-0.301-0.724c0.002-0.001,0.004-0.002,0.006-0.004
										c0.173-0.132,0.297-0.313,0.411-0.496c0.203-0.327,0.393-0.664,0.585-0.998c0.381-0.665,0.758-1.332,1.173-1.977
										c0.431-0.671,0.892-1.322,1.366-1.964c0.345-0.467,0.701-1.001,1.067-1.401c0.592-0.649,1.246-1.236,1.813-1.909
										c0.274-0.326,0.547-0.668,0.733-1.053c0.029-0.06,0.056-0.123,0.08-0.187c0.502-0.026,1.024-0.046,1.499,0.131
										c0.558,0.208,0.95,0.684,1.235,1.189c0.63,1.117,0.766,2.539-0.105,3.564c-0.432,0.509-0.975,0.922-1.469,1.367
										c-0.559,0.503-1.109,1.018-1.685,1.502C185.862,363.064,184.759,363.942,183.528,364.593z"/>
									<path style="fill:#C32F1D;" d="M190.996,361.601c-0.189,0.872-0.681,1.68-1.309,2.306
										c-0.322,0.321-0.696,0.607-1.118,0.784c-0.419,0.177-0.875,0.173-1.321,0.136c-0.477-0.04-0.961-0.09-1.427-0.198
										c-0.403-0.094-0.79-0.233-1.179-0.371c0.586-0.384,1.148-0.806,1.69-1.241c0.654-0.525,1.286-1.073,1.907-1.637
										c0.597-0.543,1.236-1.055,1.8-1.632c0.198-0.203,0.375-0.42,0.523-0.653C190.966,359.885,191.192,360.699,190.996,361.601z
										"/>
								</g>
							</g>
						</g>
						<g>
							<path style="fill:#972318;" d="M186.29,418.708c-0.008-0.006-0.017-0.008-0.025-0.014c0.042-0.008,0.081-0.078,0.022-0.079
								c-0.057-0.001-0.114,0-0.171-0.002c-0.239-0.105-0.522-0.125-0.774-0.126c-0.371-0.001-0.737,0.065-1.107,0.068
								c-0.042,0-0.079,0.031-0.106,0.066c-2.138,0.058-4.275,0.239-6.413,0.304c-2.89,0.088-5.802,0.154-8.692,0.027
								c-2.873-0.126-5.697-0.56-8.526-1.05c-2.101-0.364-4.872-0.796-6.584,0.828c-0.766,0.727-1.227,1.783-1.161,2.844
								c0.064,1.032,0.634,1.977,1.482,2.561c0.817,0.562,1.822,0.744,2.792,0.827c1.376,0.118,2.768,0.127,4.148,0.14
								c2.907,0.027,5.814-0.066,8.719-0.177c2.9-0.111,5.789-0.279,8.68-0.537c1.181-0.105,2.389-0.157,3.555-0.381
								c1.086-0.209,1.996-0.65,2.785-1.429c0.773-0.764,1.508-1.763,1.651-2.869C186.612,419.35,186.606,418.943,186.29,418.708z"
								/>
							<path style="fill:#972318;" d="M181.331,419.709c0.143,1.107,0.878,2.106,1.651,2.869c0.789,0.779,1.7,1.22,2.785,1.429
								c1.166,0.225,2.374,0.276,3.555,0.381c2.891,0.258,5.781,0.426,8.68,0.537c2.905,0.111,5.811,0.205,8.719,0.177
								c1.38-0.013,2.772-0.022,4.148-0.14c0.97-0.083,1.975-0.264,2.792-0.827c0.848-0.584,1.418-1.529,1.482-2.561
								c0.066-1.061-0.395-2.117-1.161-2.844c-1.712-1.624-4.484-1.192-6.584-0.828c-2.829,0.49-5.653,0.924-8.526,1.05
								c-2.89,0.127-5.801,0.061-8.692-0.027c-2.138-0.065-4.275-0.246-6.413-0.304c-0.027-0.035-0.063-0.066-0.106-0.066
								c-0.37-0.003-0.736-0.07-1.107-0.068c-0.252,0.001-0.535,0.021-0.774,0.126c-0.057,0.001-0.114,0-0.171,0.002
								c-0.059,0.001-0.02,0.071,0.022,0.079c-0.008,0.005-0.018,0.008-0.025,0.014C181.29,418.943,181.285,419.35,181.331,419.709z
								"/>
							<g>
								<path style="fill:#8C8D7C;" d="M190.7,421.13c0.13-0.25,0.226-0.518,0.272-0.809c0.108-0.677-0.027-1.389-0.294-2.013
									c-0.279-0.651-0.715-1.314-1.369-1.633c-0.566-0.276-1.197-0.258-1.806-0.17c0.029-0.16,0.018-0.321-0.078-0.467
									c-0.036-0.055-0.098-0.062-0.16-0.044c-0.593-0.827-1.861-1.01-2.806-0.967c-0.689,0.032-1.362,0.194-2.002,0.444
									c-0.313-0.293-0.904-0.136-1.268-0.042c-0.577,0.148-1.155,0.305-1.695,0.561c-0.973,0.462-1.747,1.333-1.956,2.41
									c-0.052,0.267-0.06,0.552,0.023,0.814c0.05,0.157,0.143,0.34,0.274,0.464c-0.536,0.919-0.966,1.905-1.157,2.953
									c-0.212,1.157-0.192,2.705,0.723,3.571c0.389,0.368,0.898,0.609,1.426,0.697c0.347,0.058,0.749,0.071,1.091-0.054
									c-0.023,0.386,0.174,0.783,0.533,0.969c0.573,0.298,1.279,0.116,1.852-0.086c0.706-0.249,1.372-0.59,2.008-0.982
									c0.764,0.327,1.541,0.527,2.365,0.622c0.786,0.091,1.534,0.124,2.248-0.268c1.283-0.705,2.287-2.156,2.448-3.616
									C191.464,422.65,191.232,421.782,190.7,421.13z"/>
								<g>
									<path style="fill:#C32F1D;" d="M177.932,419.296c-0.063-0.109-0.102-0.23-0.123-0.355
										c-0.048-0.281,0.005-0.573,0.093-0.841c0.178-0.539,0.509-1.074,0.953-1.433c0.535-0.433,1.216-0.665,1.869-0.85
										c0.448-0.127,0.971-0.318,1.446-0.231c-0.416,0.183-0.816,0.404-1.195,0.653c-1.047,0.689-1.946,1.603-2.643,2.643
										c-0.112,0.167-0.22,0.338-0.327,0.51C177.981,419.361,177.952,419.331,177.932,419.296z"/>
									<path style="fill:#C32F1D;" d="M180.164,426.322c-0.041,0.01-0.081,0.033-0.105,0.071c-0.013,0.02-0.019,0.041-0.03,0.062
										c-0.038,0.029-0.08,0.054-0.126,0.073c-0.461,0.19-1.092,0.046-1.527-0.151c-0.462-0.21-0.874-0.567-1.097-1.028
										c-0.269-0.557-0.326-1.263-0.309-1.873c0.035-1.288,0.52-2.515,1.155-3.619c0.592-1.029,1.307-1.974,2.217-2.744
										c1.001-0.848,2.203-1.486,3.509-1.686c0.616-0.094,1.263-0.099,1.871,0.049c0.526,0.128,0.962,0.387,1.362,0.73
										c0.002,0.019,0.007,0.038,0.019,0.057c0.12,0.181-0.006,0.449-0.093,0.616c-0.166,0.32-0.394,0.609-0.625,0.884
										c-0.485,0.576-1.024,1.101-1.551,1.637c-0.677,0.688-1.222,1.513-1.783,2.295c-0.822,1.146-1.536,2.346-2.238,3.567
										c-0.16,0.279-0.32,0.559-0.489,0.832C180.273,426.173,180.222,426.251,180.164,426.322z"/>
									<path style="fill:#C32F1D;" d="M183.528,426.869c-0.622,0.329-1.31,0.662-2.015,0.756
										c-0.337,0.045-0.728,0.017-0.995-0.217c-0.188-0.165-0.322-0.459-0.301-0.724c0.002-0.001,0.004-0.002,0.006-0.004
										c0.173-0.132,0.297-0.313,0.411-0.496c0.203-0.328,0.393-0.664,0.585-0.998c0.381-0.665,0.758-1.332,1.173-1.977
										c0.431-0.671,0.892-1.322,1.366-1.964c0.345-0.467,0.701-1.001,1.067-1.401c0.592-0.649,1.246-1.236,1.813-1.909
										c0.274-0.325,0.547-0.668,0.733-1.053c0.029-0.06,0.056-0.123,0.08-0.187c0.502-0.026,1.024-0.046,1.499,0.131
										c0.558,0.208,0.95,0.684,1.235,1.189c0.63,1.117,0.766,2.539-0.105,3.564c-0.432,0.509-0.975,0.922-1.469,1.367
										c-0.559,0.503-1.109,1.018-1.685,1.502C185.862,425.34,184.759,426.218,183.528,426.869z"/>
									<path style="fill:#C32F1D;" d="M190.996,423.877c-0.189,0.871-0.681,1.68-1.309,2.306
										c-0.322,0.321-0.696,0.607-1.118,0.784c-0.419,0.177-0.875,0.173-1.321,0.136c-0.477-0.04-0.961-0.09-1.427-0.198
										c-0.403-0.094-0.79-0.233-1.179-0.37c0.586-0.384,1.148-0.806,1.69-1.241c0.654-0.525,1.286-1.073,1.907-1.637
										c0.597-0.543,1.236-1.055,1.8-1.633c0.198-0.203,0.375-0.42,0.523-0.653C190.966,422.161,191.192,422.975,190.996,423.877z
										"/>
								</g>
							</g>
						</g>
						<g>
							<path style="fill:#972318;" d="M186.29,480.984c-0.008-0.006-0.017-0.008-0.025-0.014c0.042-0.008,0.081-0.078,0.022-0.079
								c-0.057-0.001-0.114-0.001-0.171-0.002c-0.239-0.105-0.522-0.125-0.774-0.126c-0.371-0.001-0.737,0.065-1.107,0.068
								c-0.042,0-0.079,0.031-0.106,0.066c-2.138,0.058-4.275,0.239-6.413,0.304c-2.89,0.088-5.802,0.154-8.692,0.027
								c-2.873-0.126-5.697-0.56-8.526-1.05c-2.101-0.364-4.872-0.796-6.584,0.828c-0.766,0.726-1.227,1.783-1.161,2.844
								c0.064,1.032,0.634,1.978,1.482,2.561c0.817,0.562,1.822,0.744,2.792,0.827c1.376,0.118,2.768,0.127,4.148,0.14
								c2.907,0.027,5.814-0.066,8.719-0.177c2.9-0.111,5.789-0.279,8.68-0.537c1.181-0.105,2.389-0.157,3.555-0.381
								c1.086-0.209,1.996-0.65,2.785-1.429c0.773-0.764,1.508-1.763,1.651-2.869C186.612,481.627,186.606,481.219,186.29,480.984z"
								/>
							<path style="fill:#972318;" d="M181.331,481.985c0.143,1.107,0.878,2.106,1.651,2.869c0.789,0.779,1.7,1.22,2.785,1.429
								c1.166,0.225,2.374,0.276,3.555,0.381c2.891,0.258,5.781,0.426,8.68,0.537c2.905,0.111,5.811,0.205,8.719,0.177
								c1.38-0.013,2.772-0.022,4.148-0.14c0.97-0.083,1.975-0.264,2.792-0.827c0.848-0.584,1.418-1.53,1.482-2.561
								c0.066-1.061-0.395-2.118-1.161-2.844c-1.712-1.624-4.484-1.192-6.584-0.828c-2.829,0.49-5.653,0.924-8.526,1.05
								c-2.89,0.127-5.801,0.061-8.692-0.027c-2.138-0.065-4.275-0.246-6.413-0.304c-0.027-0.035-0.063-0.066-0.106-0.066
								c-0.37-0.003-0.736-0.07-1.107-0.068c-0.252,0.001-0.535,0.02-0.774,0.126c-0.057,0.001-0.114,0-0.171,0.002
								c-0.059,0.001-0.02,0.071,0.022,0.079c-0.008,0.006-0.018,0.008-0.025,0.014C181.29,481.219,181.285,481.627,181.331,481.985
								z"/>
							<g>
								<path style="fill:#8C8D7C;" d="M190.7,483.406c0.13-0.25,0.226-0.518,0.272-0.809c0.108-0.677-0.027-1.388-0.294-2.013
									c-0.279-0.651-0.715-1.314-1.369-1.633c-0.566-0.276-1.197-0.257-1.806-0.171c0.029-0.159,0.018-0.321-0.078-0.467
									c-0.036-0.055-0.098-0.062-0.16-0.044c-0.593-0.827-1.861-1.01-2.806-0.967c-0.689,0.032-1.362,0.194-2.002,0.444
									c-0.313-0.293-0.904-0.136-1.268-0.042c-0.577,0.148-1.155,0.305-1.695,0.561c-0.973,0.462-1.747,1.333-1.956,2.41
									c-0.052,0.267-0.06,0.552,0.023,0.814c0.05,0.157,0.143,0.34,0.274,0.464c-0.536,0.919-0.966,1.906-1.157,2.953
									c-0.212,1.157-0.192,2.705,0.723,3.571c0.389,0.368,0.898,0.609,1.426,0.697c0.347,0.058,0.749,0.071,1.091-0.054
									c-0.023,0.386,0.174,0.783,0.533,0.97c0.573,0.298,1.279,0.116,1.852-0.086c0.706-0.249,1.372-0.59,2.008-0.983
									c0.764,0.327,1.541,0.527,2.365,0.622c0.786,0.091,1.534,0.124,2.248-0.268c1.283-0.705,2.287-2.156,2.448-3.616
									C191.464,484.926,191.232,484.058,190.7,483.406z"/>
								<g>
									<path style="fill:#C32F1D;" d="M177.932,481.572c-0.063-0.109-0.102-0.23-0.123-0.355
										c-0.048-0.281,0.005-0.573,0.093-0.841c0.178-0.539,0.509-1.074,0.953-1.433c0.535-0.433,1.216-0.665,1.869-0.85
										c0.448-0.127,0.971-0.318,1.446-0.231c-0.416,0.183-0.816,0.404-1.195,0.653c-1.047,0.689-1.946,1.603-2.643,2.643
										c-0.112,0.167-0.22,0.338-0.327,0.51C177.981,481.637,177.952,481.607,177.932,481.572z"/>
									<path style="fill:#C32F1D;" d="M180.164,488.598c-0.041,0.01-0.081,0.033-0.105,0.071c-0.013,0.02-0.019,0.042-0.03,0.062
										c-0.038,0.029-0.08,0.054-0.126,0.073c-0.461,0.19-1.092,0.046-1.527-0.151c-0.462-0.21-0.874-0.567-1.097-1.028
										c-0.269-0.557-0.326-1.263-0.309-1.873c0.035-1.288,0.52-2.515,1.155-3.619c0.592-1.029,1.307-1.974,2.217-2.744
										c1.001-0.848,2.203-1.486,3.509-1.686c0.616-0.094,1.263-0.099,1.871,0.049c0.526,0.128,0.962,0.387,1.362,0.73
										c0.002,0.019,0.007,0.039,0.019,0.057c0.12,0.181-0.006,0.449-0.093,0.616c-0.166,0.32-0.394,0.609-0.625,0.884
										c-0.485,0.576-1.024,1.101-1.551,1.637c-0.677,0.688-1.222,1.513-1.783,2.295c-0.822,1.146-1.536,2.346-2.238,3.567
										c-0.16,0.279-0.32,0.559-0.489,0.832C180.273,488.449,180.222,488.527,180.164,488.598z"/>
									<path style="fill:#C32F1D;" d="M183.528,489.145c-0.622,0.329-1.31,0.662-2.015,0.756
										c-0.337,0.045-0.728,0.017-0.995-0.217c-0.188-0.165-0.322-0.459-0.301-0.724c0.002-0.001,0.004-0.002,0.006-0.004
										c0.173-0.132,0.297-0.313,0.411-0.496c0.203-0.328,0.393-0.664,0.585-0.998c0.381-0.665,0.758-1.332,1.173-1.977
										c0.431-0.671,0.892-1.322,1.366-1.964c0.345-0.467,0.701-1.001,1.067-1.401c0.592-0.649,1.246-1.236,1.813-1.909
										c0.274-0.326,0.547-0.668,0.733-1.053c0.029-0.06,0.056-0.123,0.08-0.187c0.502-0.026,1.024-0.046,1.499,0.131
										c0.558,0.208,0.95,0.684,1.235,1.189c0.63,1.117,0.766,2.539-0.105,3.564c-0.432,0.509-0.975,0.922-1.469,1.367
										c-0.559,0.503-1.109,1.018-1.685,1.502C185.862,487.616,184.759,488.494,183.528,489.145z"/>
									<path style="fill:#C32F1D;" d="M190.996,486.153c-0.189,0.871-0.681,1.68-1.309,2.306
										c-0.322,0.321-0.696,0.607-1.118,0.785c-0.419,0.177-0.875,0.173-1.321,0.136c-0.477-0.04-0.961-0.09-1.427-0.198
										c-0.403-0.094-0.79-0.233-1.179-0.371c0.586-0.384,1.148-0.806,1.69-1.241c0.654-0.525,1.286-1.073,1.907-1.637
										c0.597-0.543,1.236-1.055,1.8-1.632c0.198-0.203,0.375-0.42,0.523-0.653C190.966,484.438,191.192,485.251,190.996,486.153z
										"/>
								</g>
							</g>
						</g>
					</g>
				</g>
				<g>
					<path style="fill:#FFFFFF;" d="M320.382,457.028c0.38-1.301,0.442-2.742,0.003-4.036c-0.275-0.811-0.737-1.503-1.302-2.114
						c2.052-0.925,3.761-2.602,4.819-4.58c0.668-1.25,1.103-2.657,1.169-4.077c0.069-1.495-0.374-2.968-1.131-4.25
						c-0.787-1.333-1.923-2.491-3.293-3.223c-1.402-0.749-2.913-0.883-4.464-0.63c-0.33,0.054-0.658,0.127-0.983,0.207
						c0.428-0.694,0.8-1.428,1.095-2.214c1.221-3.253,0.333-7.252-2.435-9.465c-2.91-2.326-7.102-1.816-10.176-0.098
						c-1.541,0.861-2.897,2.088-3.859,3.571c-0.032,0.049-0.06,0.1-0.09,0.149c-0.08-0.127-0.16-0.253-0.243-0.376
						c-0.821-1.2-1.917-2.258-3.279-2.815c-1.331-0.544-2.791-0.615-4.181-0.264c-3.091,0.779-5.697,3.165-6.645,6.216
						c-0.721,2.322-0.392,4.839,0.64,7.016c-2.409,0.122-4.715,1.177-6.2,3.162c-2.002,2.676-2.117,6.27-1.029,9.337
						c1.03,2.903,3.196,5.888,6.378,6.55c1.387,0.289,2.81,0.129,4.151-0.334c-0.356,0.715-0.604,1.473-0.64,2.27
						c-0.132,2.944,2.206,5.528,4.548,7.005c2.473,1.56,5.71,2.304,8.578,1.567c1.24-0.318,2.506-0.908,3.344-1.906
						c0.793-0.945,1.306-2.093,1.689-3.255c0.01-0.032,0.018-0.065,0.028-0.097c0.139,0.208,0.283,0.414,0.436,0.613
						c0.835,1.083,1.891,2.068,3.216,2.498c1.447,0.471,3.037,0.136,4.384-0.484C317.472,461.791,319.578,459.782,320.382,457.028z"
						/>
					<path style="fill:#D4953C;" d="M308.01,427.582c0.065-0.094-0.132-0.116-0.184-0.044c-2.909,3.971-4.711,8.938-5.352,13.801
						c-0.026,0.197,0.333,0.18,0.369,0.012C303.862,436.517,305.165,431.697,308.01,427.582z"/>
					<path style="fill:#D4953C;" d="M309.984,429.713c0.108-0.164-0.228-0.201-0.316-0.076c-2.214,3.157-3.64,6.72-5.206,10.22
						c-0.144,0.321,0.445,0.391,0.562,0.135C306.6,436.539,307.878,432.895,309.984,429.713z"/>
					<path style="fill:#D4953C;" d="M318.22,440.039c-1.242,0.024-2.457,0.258-3.675,0.482c-1.162,0.214-2.323,0.422-3.472,0.699
						c-2.264,0.546-4.569,1.257-6.525,2.554c-0.354,0.235,0.113,0.491,0.382,0.341c2.006-1.122,4.165-1.922,6.388-2.494
						c1.06-0.273,2.13-0.488,3.202-0.706c1.204-0.245,2.407-0.515,3.639-0.564C318.39,440.342,318.501,440.034,318.22,440.039z"/>
					<path style="fill:#D4953C;" d="M318.055,444.064c-1.581-0.812-3.577-0.282-5.258-0.165c-1.135,0.079-2.265,0.207-3.393,0.35
						c-1.169,0.148-2.36,0.253-3.513,0.496c-0.358,0.075-0.462,0.568-0.009,0.553c2.133-0.07,4.26-0.568,6.386-0.768
						c0.871-0.082,1.74-0.168,2.611-0.26c0.916-0.097,1.927-0.207,2.789,0.19C317.93,444.582,318.41,444.246,318.055,444.064z"/>
					<path style="fill:#D4953C;" d="M300.932,440.443c-0.067-1.031-0.523-2.033-0.941-2.969c-0.45-1.006-0.977-1.971-1.545-2.914
						c-0.598-0.993-1.182-2.001-1.822-2.968c-0.282-0.426-0.567-0.86-0.897-1.251c-0.403-0.478-0.87-0.889-1.158-1.454
						c-0.03-0.06-0.162-0.019-0.132,0.051c0.2,0.471,0.498,0.868,0.796,1.28c0.336,0.465,0.633,0.958,0.916,1.456
						c0.571,1.003,1.122,2.018,1.679,3.029c0.502,0.91,0.977,1.838,1.39,2.792c0.44,1.015,0.699,2.101,1.174,3.095
						C300.499,440.813,300.948,440.685,300.932,440.443z"/>
					<path style="fill:#D4953C;" d="M300.585,441.186c-1.042-2.009-2.558-3.781-4.06-5.46c-1.55-1.731-3.017-3.666-4.863-5.094
						c-0.115-0.089-0.403,0.047-0.259,0.165c1.752,1.436,3.108,3.345,4.559,5.071c1.479,1.759,2.759,3.619,3.978,5.564
						C300.109,441.704,300.757,441.517,300.585,441.186z"/>
					<path style="fill:#D4953C;" d="M300.062,443.467c-5.065-1.866-10.624-0.555-15.808-0.077c-0.073,0.007-0.084,0.107-0.002,0.105
						c5.163-0.129,10.374-1.086,15.413,0.496C299.972,444.087,300.483,443.622,300.062,443.467z"/>
					<path style="fill:#D4953C;" d="M298.371,444.465c-4.771,0.458-9.389,1.949-14.183,2.232c-0.172,0.01-0.258,0.24-0.046,0.234
						c4.827-0.149,9.545-1.309,14.326-1.886C298.972,444.985,298.864,444.418,298.371,444.465z"/>
					<path style="fill:#D4953C;" d="M300.144,446.307c0.211-0.346-0.458-0.39-0.632-0.152c-1.505,2.063-2.748,4.322-3.833,6.631
						c-1.065,2.266-1.888,4.635-2.415,7.084c-0.037,0.174,0.29,0.158,0.331,0.01C294.959,454.974,297.52,450.622,300.144,446.307z"
						/>
					<path style="fill:#D4953C;" d="M297.939,460.613c0.626-4.426,4.228-8.093,3.749-12.726c-0.037-0.361-0.741-0.232-0.73,0.123
						c0.139,4.512-3.063,8.189-3.482,12.589C297.452,460.845,297.908,460.83,297.939,460.613z"/>
					<path style="fill:#D4953C;" d="M315.129,455.844c-0.447-2.487-2.106-4.487-3.981-6.084c-1.901-1.62-4.064-3.046-6.265-4.223
						c-0.202-0.108-0.714,0.153-0.438,0.354c1.96,1.43,4.13,2.526,6.014,4.072c1.896,1.556,3.612,3.502,4.082,5.98
						C314.595,456.228,315.18,456.129,315.129,455.844z"/>
					<path style="fill:#D4953C;" d="M311.557,457.867c-0.304-0.407-0.381-0.901-0.55-1.37c-0.19-0.526-0.441-1.03-0.725-1.51
						c-0.589-0.995-1.334-1.89-2.082-2.768c-0.79-0.926-1.617-1.82-2.417-2.738c-0.818-0.939-1.553-1.944-2.396-2.861
						c-0.124-0.135-0.474-0.007-0.386,0.194c0.472,1.075,1.251,1.956,2.013,2.837c0.818,0.945,1.672,1.858,2.506,2.789
						c0.801,0.895,1.598,1.811,2.226,2.84c0.307,0.503,0.571,1.029,0.77,1.583c0.158,0.44,0.32,0.854,0.639,1.205
						C311.278,458.204,311.694,458.049,311.557,457.867z"/>
					<path style="fill:#418258;" d="M310.356,443.282c0.02-2.366-1.393-4.651-3.408-5.854c-2.181-1.303-4.892-1.029-7.243-0.423
						c-0.255,0.066-0.604,0.238-0.549,0.561c0.001,0.008,0.006,0.015,0.008,0.022c-0.306,0.151-0.605,0.317-0.886,0.516
						c-2.972,2.102-4.13,6.693-1.963,9.743c1.801,2.535,5.255,3.447,8.198,2.735c1.496-0.362,2.913-1.113,3.932-2.284
						C309.622,446.946,310.341,445.073,310.356,443.282z"/>
				</g>
				<g>
					<path style="fill:#FFFFFF;" d="M277.078,405.345c0.186-0.637,0.216-1.342,0.001-1.976c-0.135-0.397-0.361-0.736-0.638-1.035
						c1.004-0.453,1.841-1.274,2.359-2.242c0.327-0.612,0.54-1.301,0.572-1.996c0.034-0.732-0.183-1.453-0.554-2.08
						c-0.385-0.652-0.941-1.219-1.612-1.578c-0.686-0.366-1.426-0.432-2.185-0.308c-0.162,0.026-0.322,0.062-0.481,0.101
						c0.209-0.34,0.391-0.699,0.536-1.084c0.598-1.592,0.163-3.55-1.192-4.633c-1.424-1.139-3.476-0.889-4.981-0.048
						c-0.754,0.422-1.418,1.022-1.889,1.748c-0.016,0.024-0.029,0.049-0.044,0.073c-0.039-0.062-0.078-0.124-0.119-0.184
						c-0.402-0.587-0.939-1.105-1.605-1.378c-0.651-0.266-1.366-0.301-2.047-0.129c-1.513,0.381-2.789,1.549-3.253,3.043
						c-0.353,1.136-0.192,2.369,0.313,3.434c-1.179,0.06-2.308,0.576-3.035,1.548c-0.98,1.31-1.036,3.069-0.503,4.57
						c0.504,1.421,1.564,2.882,3.122,3.206c0.679,0.141,1.376,0.063,2.032-0.164c-0.174,0.35-0.296,0.721-0.313,1.111
						c-0.065,1.441,1.08,2.706,2.226,3.429c1.211,0.763,2.795,1.128,4.199,0.767c0.607-0.156,1.227-0.444,1.637-0.933
						c0.388-0.462,0.639-1.024,0.827-1.594c0.005-0.016,0.009-0.032,0.014-0.047c0.068,0.102,0.138,0.203,0.214,0.3
						c0.409,0.53,0.926,1.012,1.574,1.223c0.708,0.23,1.487,0.067,2.146-0.237C275.653,407.676,276.684,406.693,277.078,405.345z"/>
					<path style="fill:#D4953C;" d="M271.022,390.931c0.032-0.046-0.065-0.057-0.09-0.022c-1.424,1.944-2.306,4.375-2.62,6.756
						c-0.013,0.096,0.163,0.088,0.181,0.006C268.991,395.305,269.629,392.945,271.022,390.931z"/>
					<path style="fill:#D4953C;" d="M271.988,391.975c0.053-0.08-0.112-0.099-0.155-0.037c-1.084,1.545-1.782,3.289-2.548,5.002
						c-0.07,0.157,0.218,0.192,0.275,0.066C270.331,395.315,270.957,393.532,271.988,391.975z"/>
					<path style="fill:#D4953C;" d="M276.019,397.029c-0.608,0.012-1.203,0.126-1.799,0.236c-0.569,0.105-1.137,0.207-1.7,0.342
						c-1.108,0.267-2.236,0.615-3.194,1.25c-0.173,0.115,0.056,0.24,0.187,0.167c0.982-0.549,2.039-0.941,3.127-1.221
						c0.519-0.133,1.043-0.239,1.567-0.346c0.589-0.12,1.178-0.252,1.781-0.276C276.103,397.177,276.157,397.026,276.019,397.029z"
						/>
					<path style="fill:#D4953C;" d="M275.939,398.999c-0.774-0.397-1.751-0.138-2.574-0.081c-0.556,0.039-1.109,0.101-1.661,0.171
						c-0.572,0.072-1.155,0.124-1.719,0.243c-0.175,0.037-0.226,0.278-0.005,0.271c1.044-0.034,2.085-0.278,3.126-0.376
						c0.427-0.04,0.852-0.082,1.278-0.127c0.448-0.047,0.943-0.102,1.365,0.093C275.877,399.253,276.112,399.088,275.939,398.999z"
						/>
					<path style="fill:#D4953C;" d="M267.557,397.226c-0.033-0.504-0.256-0.995-0.461-1.453c-0.22-0.492-0.478-0.965-0.756-1.426
						c-0.293-0.486-0.579-0.98-0.892-1.453c-0.138-0.209-0.278-0.421-0.439-0.612c-0.197-0.234-0.426-0.435-0.567-0.712
						c-0.015-0.029-0.079-0.009-0.065,0.025c0.098,0.231,0.244,0.425,0.39,0.626c0.164,0.228,0.31,0.469,0.448,0.713
						c0.279,0.491,0.549,0.988,0.822,1.482c0.246,0.445,0.478,0.9,0.681,1.367c0.215,0.497,0.342,1.028,0.575,1.515
						C267.345,397.408,267.565,397.345,267.557,397.226z"/>
					<path style="fill:#D4953C;" d="M267.387,397.59c-0.51-0.983-1.252-1.851-1.987-2.672c-0.759-0.847-1.477-1.794-2.38-2.493
						c-0.056-0.043-0.197,0.023-0.126,0.081c0.857,0.703,1.521,1.637,2.231,2.482c0.724,0.861,1.35,1.771,1.947,2.724
						C267.154,397.844,267.471,397.753,267.387,397.59z"/>
					<path style="fill:#D4953C;" d="M267.131,398.707c-2.479-0.913-5.2-0.272-7.738-0.038c-0.036,0.003-0.041,0.052-0.001,0.051
						c2.527-0.063,5.078-0.532,7.544,0.243C267.087,399.01,267.337,398.783,267.131,398.707z"/>
					<path style="fill:#D4953C;" d="M266.303,399.195c-2.335,0.224-4.596,0.954-6.942,1.093c-0.084,0.005-0.126,0.118-0.023,0.115
						c2.363-0.073,4.672-0.641,7.013-0.923C266.598,399.45,266.545,399.172,266.303,399.195z"/>
					<path style="fill:#D4953C;" d="M267.171,400.097c0.103-0.17-0.224-0.191-0.309-0.074c-0.737,1.01-1.345,2.116-1.876,3.246
						c-0.521,1.109-0.924,2.269-1.182,3.467c-0.018,0.085,0.142,0.077,0.162,0.005C264.633,404.339,265.887,402.209,267.171,400.097
						z"/>
					<path style="fill:#D4953C;" d="M266.092,407.1c0.307-2.166,2.069-3.961,1.835-6.229c-0.018-0.177-0.363-0.114-0.357,0.06
						c0.068,2.209-1.499,4.008-1.705,6.162C265.853,407.213,266.077,407.206,266.092,407.1z"/>
					<path style="fill:#D4953C;" d="M274.506,404.765c-0.219-1.217-1.031-2.196-1.948-2.978c-0.931-0.793-1.989-1.491-3.067-2.067
						c-0.099-0.053-0.349,0.075-0.215,0.173c0.959,0.7,2.022,1.236,2.944,1.993c0.928,0.762,1.768,1.714,1.998,2.927
						C274.245,404.953,274.531,404.905,274.506,404.765z"/>
					<path style="fill:#D4953C;" d="M272.758,405.755c-0.149-0.199-0.186-0.441-0.269-0.67c-0.093-0.257-0.216-0.504-0.355-0.739
						c-0.288-0.487-0.653-0.925-1.019-1.355c-0.387-0.453-0.792-0.891-1.183-1.34c-0.4-0.46-0.76-0.952-1.173-1.4
						c-0.061-0.066-0.232-0.003-0.189,0.095c0.231,0.526,0.613,0.957,0.986,1.389c0.4,0.463,0.819,0.909,1.227,1.365
						c0.392,0.438,0.782,0.887,1.089,1.39c0.15,0.246,0.28,0.504,0.377,0.775c0.077,0.215,0.157,0.418,0.313,0.59
						C272.621,405.921,272.825,405.845,272.758,405.755z"/>
					<path style="fill:#418258;" d="M272.17,398.616c0.01-1.158-0.682-2.277-1.668-2.866c-1.068-0.638-2.394-0.504-3.545-0.207
						c-0.125,0.032-0.296,0.117-0.269,0.275c0.001,0.004,0.003,0.007,0.004,0.011c-0.15,0.074-0.296,0.155-0.434,0.252
						c-1.455,1.029-2.022,3.276-0.961,4.769c0.882,1.241,2.572,1.687,4.013,1.339c0.732-0.177,1.426-0.545,1.925-1.118
						C271.811,400.41,272.162,399.493,272.17,398.616z"/>
				</g>
				<g>
					<path style="fill:#FFFFFF;" d="M210.967,473.511c0.144-0.493,0.167-1.038,0.001-1.528c-0.104-0.307-0.279-0.569-0.493-0.8
						c0.777-0.35,1.423-0.985,1.824-1.733c0.253-0.473,0.418-1.006,0.443-1.543c0.026-0.566-0.141-1.123-0.428-1.608
						c-0.298-0.505-0.728-0.943-1.246-1.22c-0.531-0.283-1.102-0.334-1.689-0.238c-0.125,0.02-0.249,0.048-0.372,0.078
						c0.162-0.263,0.303-0.541,0.414-0.838c0.462-1.231,0.126-2.745-0.921-3.582c-1.101-0.88-2.688-0.687-3.851-0.037
						c-0.583,0.326-1.096,0.79-1.46,1.352c-0.012,0.018-0.023,0.038-0.034,0.056c-0.03-0.048-0.06-0.096-0.092-0.142
						c-0.311-0.454-0.726-0.854-1.241-1.065c-0.504-0.206-1.056-0.233-1.583-0.1c-1.17,0.295-2.156,1.198-2.515,2.353
						c-0.273,0.879-0.148,1.831,0.242,2.655c-0.912,0.046-1.785,0.446-2.346,1.197c-0.758,1.013-0.801,2.373-0.389,3.534
						c0.39,1.099,1.209,2.228,2.414,2.479c0.525,0.109,1.064,0.049,1.571-0.126c-0.135,0.271-0.229,0.557-0.242,0.859
						c-0.05,1.114,0.835,2.092,1.721,2.651c0.936,0.59,2.161,0.872,3.246,0.593c0.469-0.12,0.949-0.343,1.265-0.721
						c0.3-0.358,0.494-0.792,0.639-1.232c0.004-0.012,0.007-0.024,0.01-0.037c0.053,0.079,0.107,0.157,0.165,0.232
						c0.316,0.41,0.716,0.783,1.217,0.946c0.548,0.178,1.149,0.052,1.659-0.183C209.865,475.314,210.662,474.553,210.967,473.511z"
						/>
					<path style="fill:#D4953C;" d="M206.284,462.367c0.025-0.035-0.05-0.044-0.07-0.017c-1.101,1.503-1.783,3.383-2.025,5.223
						c-0.01,0.074,0.126,0.068,0.14,0.004C204.715,465.749,205.208,463.924,206.284,462.367z"/>
					<path style="fill:#D4953C;" d="M207.031,463.173c0.041-0.062-0.086-0.076-0.119-0.029c-0.838,1.195-1.378,2.543-1.97,3.868
						c-0.054,0.122,0.168,0.148,0.213,0.051C205.751,465.757,206.234,464.378,207.031,463.173z"/>
					<path style="fill:#D4953C;" d="M210.148,467.082c-0.47,0.009-0.93,0.098-1.391,0.182c-0.44,0.081-0.879,0.16-1.314,0.265
						c-0.857,0.207-1.729,0.476-2.469,0.966c-0.134,0.089,0.043,0.186,0.145,0.129c0.759-0.425,1.576-0.727,2.418-0.944
						c0.401-0.103,0.806-0.185,1.212-0.267c0.456-0.093,0.911-0.195,1.377-0.213C210.213,467.196,210.255,467.079,210.148,467.082z"
						/>
					<path style="fill:#D4953C;" d="M210.086,468.605c-0.598-0.307-1.354-0.107-1.99-0.062c-0.43,0.03-0.857,0.078-1.284,0.132
						c-0.442,0.056-0.893,0.096-1.329,0.188c-0.136,0.029-0.175,0.215-0.004,0.209c0.807-0.026,1.612-0.215,2.417-0.29
						c0.33-0.031,0.659-0.064,0.988-0.098c0.347-0.037,0.729-0.078,1.056,0.072C210.038,468.801,210.22,468.673,210.086,468.605z"/>
					<path style="fill:#D4953C;" d="M203.606,467.234c-0.025-0.39-0.198-0.769-0.356-1.124c-0.17-0.381-0.37-0.746-0.585-1.103
						c-0.226-0.376-0.447-0.757-0.689-1.123c-0.107-0.161-0.215-0.326-0.34-0.473c-0.153-0.181-0.329-0.337-0.438-0.55
						c-0.011-0.023-0.061-0.007-0.05,0.019c0.076,0.178,0.189,0.328,0.301,0.484c0.127,0.176,0.239,0.362,0.347,0.551
						c0.216,0.38,0.424,0.764,0.635,1.146c0.19,0.344,0.37,0.696,0.526,1.056c0.167,0.384,0.265,0.795,0.444,1.172
						C203.442,467.374,203.612,467.326,203.606,467.234z"/>
					<path style="fill:#D4953C;" d="M203.474,467.516c-0.394-0.76-0.968-1.431-1.537-2.066c-0.587-0.655-1.142-1.387-1.84-1.928
						c-0.044-0.034-0.153,0.018-0.098,0.063c0.663,0.543,1.176,1.266,1.725,1.919c0.56,0.666,1.044,1.37,1.505,2.106
						C203.294,467.711,203.539,467.641,203.474,467.516z"/>
					<path style="fill:#D4953C;" d="M203.276,468.379c-1.917-0.706-4.021-0.21-5.983-0.029c-0.028,0.003-0.032,0.04-0.001,0.04
						c1.954-0.049,3.926-0.411,5.833,0.188C203.242,468.613,203.436,468.437,203.276,468.379z"/>
					<path style="fill:#D4953C;" d="M202.636,468.757c-1.805,0.173-3.553,0.738-5.367,0.845c-0.065,0.004-0.098,0.091-0.018,0.088
						c1.827-0.056,3.613-0.496,5.422-0.714C202.864,468.953,202.823,468.739,202.636,468.757z"/>
					<path style="fill:#D4953C;" d="M203.307,469.454c0.08-0.131-0.173-0.148-0.239-0.058c-0.57,0.781-1.04,1.636-1.451,2.51
						c-0.403,0.857-0.715,1.754-0.914,2.681c-0.014,0.066,0.11,0.06,0.125,0.004C201.345,472.734,202.314,471.087,203.307,469.454z"
						/>
					<path style="fill:#D4953C;" d="M202.473,474.868c0.237-1.675,1.6-3.063,1.419-4.816c-0.014-0.137-0.281-0.088-0.276,0.047
						c0.053,1.708-1.159,3.099-1.318,4.764C202.289,474.956,202.461,474.95,202.473,474.868z"/>
					<path style="fill:#D4953C;" d="M208.979,473.063c-0.169-0.941-0.797-1.698-1.507-2.302c-0.719-0.613-1.538-1.153-2.371-1.598
						c-0.077-0.041-0.27,0.058-0.166,0.134c0.742,0.541,1.563,0.956,2.276,1.541c0.717,0.589,1.367,1.326,1.545,2.263
						C208.776,473.208,208.998,473.171,208.979,473.063z"/>
					<path style="fill:#D4953C;" d="M207.627,473.829c-0.115-0.154-0.144-0.341-0.208-0.518c-0.072-0.199-0.167-0.39-0.275-0.572
						c-0.223-0.376-0.505-0.715-0.788-1.047c-0.299-0.351-0.612-0.689-0.915-1.036c-0.31-0.356-0.588-0.736-0.907-1.083
						c-0.047-0.051-0.18-0.003-0.146,0.073c0.179,0.407,0.474,0.74,0.762,1.074c0.309,0.358,0.633,0.703,0.948,1.056
						c0.303,0.339,0.605,0.686,0.842,1.075c0.116,0.19,0.216,0.389,0.292,0.599c0.06,0.166,0.121,0.323,0.242,0.456
						C207.521,473.956,207.678,473.898,207.627,473.829z"/>
					<path style="fill:#418258;" d="M207.172,468.309c0.008-0.896-0.527-1.76-1.29-2.216c-0.825-0.493-1.851-0.389-2.741-0.16
						c-0.096,0.025-0.229,0.09-0.208,0.212c0.001,0.003,0.002,0.005,0.003,0.008c-0.116,0.057-0.229,0.12-0.335,0.195
						c-1.125,0.796-1.563,2.533-0.743,3.687c0.682,0.959,1.989,1.305,3.102,1.035c0.566-0.137,1.102-0.421,1.488-0.864
						C206.895,469.695,207.167,468.987,207.172,468.309z"/>
				</g>
			</g>
		</g>
	</g>
	<g>
		<path style="fill:#EFB291;" d="M301.388,175.606c-3.195-10.595-14.762-15.928-25.644-11.945
			c-6.224,2.278-10.773,8.022-13.342,13.676c-1.497,3.296-2.359,6.878-2.818,10.439c-2.279,6.38-3.358,13.382-2.941,20.046
			c0.295,4.719,0.918,13.362,6.006,15.928c4.961,2.502,12.821-1.581,17.028-4.024c5.341-3.102,9.746-7.463,13.327-12.311
			C299.746,198.288,304.765,186.806,301.388,175.606z"/>
		<path style="opacity:0.64;fill:#EB936D;" d="M267.891,224.423c0.691-2.376,1.35-4.761,1.968-7.157
			c2.466-9.555,4.372-19.299,5.171-29.144c0.642-7.918,0.592-15.98-0.783-23.822c-5.458,2.592-9.487,7.849-11.845,13.038
			c-1.497,3.296-2.359,6.878-2.818,10.439c-2.279,6.38-3.358,13.382-2.941,20.046c0.295,4.719,0.918,13.362,6.006,15.928
			C264.183,224.524,265.996,224.665,267.891,224.423z"/>
		<path style="fill:#EB936D;" d="M296.213,175.935c-1.193-2.007-3.372-3.191-5.639-3.485c-5.218-0.677-10.584,2.995-13.888,6.703
			c-7.356,8.254-8.73,20.211-9.158,30.798c-0.025,0.619,0.883,0.19,0.949-0.242c0.262-1.707,0.526-3.441,0.816-5.183
			c0.205,1.247,0.508,2.472,0.809,3.57c0.591,2.155,1.93,4.069,4.313,4.198c5.754,0.311,9.744-6.549,12.529-10.474
			c0.262-0.369-0.32-0.475-0.539-0.224c-2.598,2.983-5.287,6.896-9.155,8.321c-3.113,1.148-4.492-1.108-5.336-3.675
			c-0.695-2.116-1.798-4.567-1.324-6.815c0.066-0.312-0.056-0.473-0.242-0.53c1.105-5.163,2.661-10.23,5.297-14.72
			c2.29-3.9,5.76-7.453,10.179-8.844c3.009-0.947,6.289-0.441,8.141,2.32c1.729,2.578,1.193,5.977,1.608,8.925
			c0.049,0.35,0.611,0.014,0.624-0.231C296.384,182.88,298.164,179.218,296.213,175.935z"/>
	</g>
	<g>
		<path style="fill:#EFB291;" d="M301.388,175.606c-3.195-10.595-14.762-15.928-25.644-11.945
			c-6.224,2.278-10.773,8.022-13.342,13.676c-1.497,3.296-2.359,6.878-2.818,10.439c-2.279,6.38-3.358,13.382-2.941,20.046
			c0.295,4.719,0.918,13.362,6.006,15.928c4.961,2.502,12.821-1.581,17.028-4.024c5.341-3.102,9.746-7.463,13.327-12.311
			C299.746,198.288,304.765,186.806,301.388,175.606z"/>
		<path style="opacity:0.64;fill:#EB936D;" d="M267.891,224.423c0.691-2.376,1.35-4.761,1.968-7.157
			c2.466-9.555,4.372-19.299,5.171-29.144c0.642-7.918,0.592-15.98-0.783-23.822c-5.458,2.592-9.487,7.849-11.845,13.038
			c-1.497,3.296-2.359,6.878-2.818,10.439c-2.279,6.38-3.358,13.382-2.941,20.046c0.295,4.719,0.918,13.362,6.006,15.928
			C264.183,224.524,265.996,224.665,267.891,224.423z"/>
		<path style="fill:#EB936D;" d="M296.213,175.935c-1.193-2.007-3.372-3.191-5.639-3.485c-5.218-0.677-10.584,2.995-13.888,6.703
			c-7.356,8.254-8.73,20.211-9.158,30.798c-0.025,0.619,0.883,0.19,0.949-0.242c0.262-1.707,0.526-3.441,0.816-5.183
			c0.205,1.247,0.508,2.472,0.809,3.57c0.591,2.155,1.93,4.069,4.313,4.198c5.754,0.311,9.744-6.549,12.529-10.474
			c0.262-0.369-0.32-0.475-0.539-0.224c-2.598,2.983-5.287,6.896-9.155,8.321c-3.113,1.148-4.492-1.108-5.336-3.675
			c-0.695-2.116-1.798-4.567-1.324-6.815c0.066-0.312-0.056-0.473-0.242-0.53c1.105-5.163,2.661-10.23,5.297-14.72
			c2.29-3.9,5.76-7.453,10.179-8.844c3.009-0.947,6.289-0.441,8.141,2.32c1.729,2.578,1.193,5.977,1.608,8.925
			c0.049,0.35,0.611,0.014,0.624-0.231C296.384,182.88,298.164,179.218,296.213,175.935z"/>
	</g>
	<g>
		<path style="fill:#EFB291;" d="M71.519,207.415c3.581,4.848,7.986,9.209,13.327,12.311c4.207,2.444,12.067,6.527,17.028,4.024
			c5.088-2.566,5.711-11.209,6.006-15.928c0.416-6.664-0.663-13.666-2.941-20.046c-0.458-3.561-1.32-7.143-2.818-10.439
			c-2.569-5.655-7.118-11.398-13.342-13.676c-10.882-3.983-22.449,1.35-25.644,11.945C59.757,186.806,64.777,198.288,71.519,207.415
			z"/>
		<path style="opacity:0.64;fill:#EB936D;" d="M96.631,224.423c-0.691-2.376-1.35-4.761-1.968-7.157
			c-2.466-9.555-4.372-19.299-5.171-29.144c-0.642-7.918-0.591-15.98,0.783-23.822c5.458,2.592,9.487,7.849,11.845,13.038
			c1.498,3.296,2.36,6.878,2.818,10.439c2.279,6.38,3.357,13.382,2.941,20.046c-0.295,4.719-0.918,13.362-6.006,15.928
			C100.339,224.524,98.527,224.665,96.631,224.423z"/>
		<path style="fill:#EB936D;" d="M68.31,175.935c1.193-2.007,3.372-3.191,5.639-3.485c5.218-0.677,10.584,2.995,13.888,6.703
			c7.355,8.254,8.73,20.211,9.157,30.798c0.025,0.619-0.883,0.19-0.949-0.242c-0.262-1.707-0.526-3.441-0.816-5.183
			c-0.205,1.247-0.508,2.472-0.809,3.57c-0.591,2.155-1.93,4.069-4.313,4.198c-5.754,0.311-9.744-6.549-12.529-10.474
			c-0.262-0.369,0.32-0.475,0.539-0.224c2.598,2.983,5.287,6.896,9.154,8.321c3.113,1.148,4.493-1.108,5.336-3.675
			c0.695-2.116,1.798-4.567,1.324-6.815c-0.066-0.312,0.056-0.473,0.242-0.53c-1.105-5.163-2.661-10.23-5.297-14.72
			c-2.29-3.9-5.76-7.453-10.179-8.844c-3.009-0.947-6.289-0.441-8.141,2.32c-1.729,2.578-1.193,5.977-1.608,8.925
			c-0.049,0.35-0.611,0.014-0.624-0.231C68.138,182.88,66.358,179.218,68.31,175.935z"/>
	</g>
	<path style="fill:#EFB291;" d="M265.871,92.032c-19.901-48.446-71.311-45.061-83.482-43.528
		c-12.169-1.553-63.573-5.025-83.556,43.388c-22.738,55.09-3.354,132.907,12.831,161.169c16.185,28.263,49.98,41.721,68.965,43.126
		c0,0,0.575,0.026,1.55,0.005c0.975,0.023,1.551-0.002,1.551-0.002c18.988-1.373,52.806-14.775,69.038-43.01
		C269.001,224.944,288.516,147.16,265.871,92.032z"/>
	<g>
		<path style="fill:#F07D77;" d="M209.132,242.816c-2.107,0.764-4.397,0.69-6.583,0.348c-1.997-0.313-3.954-0.842-5.886-1.424
			c-1.992-0.6-3.907-1.342-5.859-2.053c-1.982-0.721-4.186-1.273-6.276-0.657c-1.267,0.374-2.449,1.238-3.395,2.209
			c-0.946-0.971-2.127-1.836-3.395-2.209c-2.09-0.616-4.294-0.064-6.276,0.657c-1.952,0.711-3.867,1.453-5.859,2.053
			c-1.932,0.582-3.889,1.111-5.886,1.424c-2.186,0.342-4.476,0.415-6.583-0.348c-0.444-0.161-1.098,0.419-0.836,0.86
			c0.263,0.443,0.747,0.855,1.138,1.196c0.413,0.359,0.891,0.633,1.363,0.907c1.143,0.662,2.153,1.444,3.065,2.396
			c1.817,1.897,3.331,4.01,5.503,5.55c4.225,2.996,9.624,4.209,14.746,4.455c1.007,0.048,2.015,0.052,3.018,0
			c1.003,0.052,2.011,0.048,3.018,0c5.123-0.246,10.521-1.459,14.746-4.455c2.173-1.541,3.687-3.653,5.503-5.55
			c0.912-0.952,1.922-1.734,3.065-2.396c0.473-0.274,0.951-0.547,1.363-0.907c0.391-0.341,0.875-0.753,1.138-1.196
			C210.23,243.235,209.577,242.654,209.132,242.816z"/>
		<path style="fill:#D7513D;" d="M211.077,241.997c-1.42,1.187-3.088,1.74-4.781,2.427c-2.003,0.813-4.057,1.187-6.206,1.374
			c-2.103,0.184-4.223,0.173-6.333,0.213c-1.043,0.02-2.091,0.104-3.134,0.075c-0.958-0.026-1.914-0.132-2.873-0.115
			c-1.915,0.035-3.51,1.024-5.235,1.726c-1.936,0.787-3.96,0.592-5.862-0.183c-0.908-0.37-1.761-0.863-2.68-1.206
			c-0.866-0.324-1.749-0.596-2.665-0.74c-1.012-0.158-2.04-0.136-3.061-0.178c-1.068-0.043-2.136-0.1-3.202-0.173
			c-2.357-0.162-4.709-0.382-7.067-0.544c-1.173-0.081-2.337-0.208-3.501-0.37c-0.838-0.117-1.621-0.45-1.983-1.258
			c-0.132-0.294-0.625-0.037-0.554,0.243c0.159,0.628,0.321,1.269,0.907,1.621c0.729,0.438,1.634,0.52,2.459,0.625
			c2.223,0.284,4.47,0.344,6.699,0.576c2.203,0.229,4.413,0.364,6.625,0.465c1.067,0.049,2.086,0.108,3.119,0.406
			c0.954,0.276,1.871,0.669,2.805,1.004c1.942,0.696,3.829,1.086,5.899,0.816c1.963-0.256,3.684-1.355,5.63-1.67
			c1.003-0.162,2.037-0.087,3.045-0.021c1.05,0.068,2.081,0.051,3.132,0.027c2.218-0.052,4.452,0.019,6.652-0.319
			c2.445-0.375,4.833-1.104,7.238-1.666c1.891-0.442,4.259-0.971,5.538-2.556C212.08,242.109,211.573,241.582,211.077,241.997z"/>
	</g>
	<g>
		<g>
			<path style="opacity:0.65;fill:#92422B;" d="M177.26,224.397c-2.939-0.231-6.048-1.27-8.42-3.035
				c-1.14-0.848-2.201-1.972-2.557-3.386c-0.515-2.045,0.884-3.648,1.918-5.253c1.434-2.226,2.475-4.764,3.189-7.307
				c0.059-0.211-0.239-0.183-0.313-0.046c-1.261,2.336-2.277,4.78-3.78,6.983c-1.19,1.744-2.634,3.413-2.288,5.678
				c0.501,3.285,4.169,5.251,6.991,6.225c1.632,0.563,3.423,0.928,5.148,0.68C177.416,224.899,177.643,224.427,177.26,224.397z"/>
			<path style="opacity:0.65;fill:#92422B;" d="M192.794,215.75c-0.084-0.176-0.366,0.052-0.345,0.195
				c0.091,0.618,0.104,1.262,0.086,1.887c-0.019,0.644-0.084,1.292-0.266,1.912c-0.164,0.561-0.411,1.12-0.772,1.583
				c-0.395,0.506-0.943,0.847-1.439,1.24c-0.131,0.104-0.217,0.383,0.036,0.386c1.544,0.018,2.651-1.717,3.01-3.036
				C193.486,218.514,193.422,217.066,192.794,215.75z"/>
		</g>
		<g>
			<path style="fill:#FFFFFF;" d="M250.055,176.862c-0.624-1.152-1.331-2.257-2.014-3.374c-0.624-1.023-1.273-2.032-1.974-3.004
				c-0.294-0.408-0.603-0.809-0.921-1.203c-0.822-0.772-1.683-1.499-2.587-2.137c-3.185-2.25-7.006-3.495-10.901-3.518
				c-2.464,0.215-4.93,0.798-7.287,1.499c-1.132,0.337-2.242,0.743-3.314,1.23c-3.773,2.013-7.048,5.01-9.426,8.553
				c-0.568,0.983-1.078,2.001-1.526,3.038c-0.867,2.007-1.554,4.146-1.821,6.322c-0.196,1.602-0.184,3.321,0.434,4.831
				c0.046,0.024,0.091,0.05,0.137,0.074c0.102,0.089,0.208,0.177,0.323,0.262c1.033,0.767,2.326,1.221,3.539,1.61
				c2.354,0.755,4.75,1.364,7.195,1.744c9.465,1.471,19.579-0.126,27.514-5.71c1.085-0.764,2.137-1.597,3.126-2.482
				c0.693-0.62,1.388-1.353,1.837-2.196C251.801,180.481,251.01,178.626,250.055,176.862z"/>
			<path style="fill:#92422B;" d="M238.864,191.202c-0.323,0.063-0.649,0.122-0.973,0.182c-0.146,0.047-0.291,0.096-0.438,0.139
				c-2.149,0.637-4.367,1.036-6.596,1.256c-3.416,0.337-6.951,0.43-10.37-0.084c-2.244-0.148-4.472-0.444-6.664-0.932
				c0.891,0.332,1.787,0.646,2.698,0.922c2.174,0.66,4.367,1.056,6.636,1.171c4.549,0.231,9.193,0.043,13.618-1.118
				c1.239-0.325,2.462-0.745,3.635-1.258c0.892-0.391,1.898-0.827,2.736-1.408C241.74,190.528,240.316,190.918,238.864,191.202z"/>
			<g>
				<g>
					
						<ellipse transform="matrix(0.6226 -0.7825 0.7825 0.6226 -52.8163 247.0423)" style="fill:#92422B;" cx="229.726" cy="178.281" rx="14.537" ry="14.537"/>
					<path style="fill:#1A1716;" d="M240.549,178.417c-0.075,5.978-4.981,10.763-10.959,10.688
						c-5.978-0.075-10.763-4.981-10.688-10.959c0.075-5.978,4.981-10.763,10.959-10.688
						C235.839,167.533,240.624,172.439,240.549,178.417z"/>
					<circle style="fill:#FFFFFF;" cx="224.12" cy="172.235" r="4.287"/>
					<path style="fill:#FFFFFF;" d="M220.656,178.536c-0.009,0.699-0.582,1.259-1.281,1.25c-0.699-0.009-1.259-0.583-1.25-1.281
						c0.009-0.699,0.582-1.259,1.281-1.25C220.106,177.263,220.665,177.837,220.656,178.536z"/>
				</g>
			</g>
			<path d="M251.566,181.525c0.095,0.21,0.208,0.422,0.351,0.606c1.665-0.382,3.261-1.099,4.732-1.942
				c1.434-0.822,2.786-1.793,4.015-2.899c-0.029,0.003-0.052-0.002-0.084,0.005c-0.865,0.178-1.711,0.417-2.572,0.607
				c-0.808,0.178-1.659,0.221-2.416-0.17c-0.677-0.35-1.156-0.947-1.573-1.568c-0.542-0.807-1.022-1.654-1.541-2.475
				c-1.991-3.15-4.837-6.164-8.273-7.714c-0.78-0.352-1.575-0.634-2.38-0.875c-0.96-0.429-1.94-0.811-2.932-1.135
				c-2.331-0.761-4.766-1.109-7.204-1.104c-2.986-0.055-5.985,0.435-8.773,1.452c-0.897,0.327-1.78,0.715-2.642,1.154
				c-3.49,1.65-6.665,4.08-8.85,7.242c-0.26,0.376-0.495,0.766-0.72,1.161c-1.509,2.274-2.386,4.832-2.942,7.503
				c-0.203,0.976-0.358,1.959-0.42,2.949c-0.196,1.471-0.205,2.954,0.142,4.383c0.054-0.444,0.145-0.884,0.228-1.283
				c0.219-1.067,0.522-2.116,0.833-3.16c0.33-1.11,0.613-2.232,1.018-3.318c0.19-0.51,0.401-1.011,0.624-1.508
				c0.483-1.673,1.136-3.284,2.094-4.764c2.165-3.345,5.424-6.109,9.038-7.864c0.678-0.297,1.366-0.566,2.061-0.796
				c4.661-1.546,9.777-1.705,14.441-0.132c0.157,0.053,0.312,0.111,0.468,0.167c4.068,1.609,7.351,4.904,9.683,8.533
				c0.81,1.261,1.533,2.573,2.231,3.899c0.314,0.596,0.679,1.203,0.92,1.826C251.276,180.708,251.387,181.127,251.566,181.525z"/>
		</g>
		<g>
			<path style="fill:#FFFFFF;" d="M113.616,176.862c0.624-1.152,1.331-2.257,2.014-3.374c0.625-1.023,1.273-2.032,1.974-3.004
				c0.294-0.408,0.603-0.809,0.921-1.203c0.822-0.772,1.683-1.499,2.587-2.137c3.185-2.25,7.006-3.495,10.901-3.518
				c2.464,0.215,4.93,0.798,7.287,1.499c1.132,0.337,2.242,0.743,3.314,1.23c3.773,2.013,7.048,5.01,9.426,8.553
				c0.568,0.983,1.078,2.001,1.526,3.038c0.867,2.007,1.554,4.146,1.821,6.322c0.196,1.602,0.184,3.321-0.434,4.831
				c-0.046,0.024-0.091,0.05-0.137,0.074c-0.102,0.089-0.208,0.177-0.323,0.262c-1.033,0.767-2.326,1.221-3.54,1.61
				c-2.354,0.755-4.75,1.364-7.195,1.744c-9.465,1.471-19.579-0.126-27.514-5.71c-1.086-0.764-2.137-1.597-3.126-2.482
				c-0.693-0.62-1.388-1.353-1.837-2.196C111.869,180.481,112.66,178.626,113.616,176.862z"/>
			<path style="fill:#92422B;" d="M124.807,191.202c0.323,0.063,0.649,0.122,0.974,0.182c0.146,0.047,0.291,0.096,0.438,0.139
				c2.149,0.637,4.367,1.036,6.596,1.256c3.416,0.337,6.951,0.43,10.37-0.084c2.244-0.148,4.472-0.444,6.664-0.932
				c-0.891,0.332-1.787,0.646-2.698,0.922c-2.174,0.66-4.367,1.056-6.636,1.171c-4.549,0.231-9.193,0.043-13.618-1.118
				c-1.239-0.325-2.462-0.745-3.635-1.258c-0.892-0.391-1.898-0.827-2.736-1.408C121.93,190.528,123.355,190.918,124.807,191.202z"
				/>
			<g>
				<g>
					
						<ellipse transform="matrix(0.7071 -0.7071 0.7071 0.7071 -86.7528 148.0488)" style="fill:#92422B;" cx="135.334" cy="178.744" rx="14.537" ry="14.537"/>
					<path style="fill:#1A1716;" d="M146.158,178.88c-0.075,5.978-4.981,10.763-10.959,10.688
						c-5.978-0.075-10.763-4.981-10.688-10.959c0.075-5.978,4.981-10.763,10.959-10.688
						C141.447,167.996,146.232,172.902,146.158,178.88z"/>
					<path style="fill:#FFFFFF;" d="M134.015,172.751c-0.03,2.367-1.973,4.263-4.34,4.233c-2.367-0.03-4.263-1.973-4.233-4.34
						s1.973-4.262,4.34-4.233C132.15,168.441,134.045,170.384,134.015,172.751z"/>
					<path style="fill:#FFFFFF;" d="M126.265,178.999c-0.009,0.699-0.582,1.259-1.281,1.25c-0.699-0.009-1.259-0.583-1.25-1.282
						c0.009-0.699,0.583-1.259,1.282-1.25C125.714,177.726,126.274,178.3,126.265,178.999z"/>
				</g>
			</g>
			<path d="M112.105,181.525c-0.095,0.21-0.208,0.422-0.351,0.606c-1.665-0.382-3.261-1.099-4.732-1.942
				c-1.434-0.822-2.786-1.793-4.015-2.899c0.029,0.003,0.052-0.002,0.084,0.005c0.865,0.178,1.711,0.417,2.572,0.607
				c0.808,0.178,1.659,0.221,2.416-0.17c0.677-0.35,1.156-0.947,1.573-1.568c0.541-0.807,1.022-1.654,1.541-2.475
				c1.991-3.15,4.837-6.164,8.273-7.714c0.78-0.352,1.575-0.634,2.38-0.875c0.96-0.429,1.94-0.811,2.932-1.135
				c2.332-0.761,4.766-1.109,7.204-1.104c2.986-0.055,5.985,0.435,8.773,1.452c0.897,0.327,1.78,0.715,2.642,1.154
				c3.49,1.65,6.665,4.08,8.85,7.242c0.26,0.376,0.495,0.766,0.72,1.161c1.509,2.274,2.386,4.832,2.942,7.503
				c0.203,0.976,0.358,1.959,0.42,2.949c0.196,1.471,0.205,2.954-0.142,4.383c-0.054-0.444-0.145-0.884-0.228-1.283
				c-0.219-1.067-0.522-2.116-0.833-3.16c-0.33-1.11-0.613-2.232-1.018-3.318c-0.19-0.51-0.401-1.011-0.624-1.508
				c-0.483-1.673-1.136-3.284-2.094-4.764c-2.165-3.345-5.424-6.109-9.038-7.864c-0.678-0.297-1.366-0.566-2.061-0.796
				c-4.661-1.546-9.777-1.705-14.441-0.132c-0.157,0.053-0.312,0.111-0.468,0.167c-4.068,1.609-7.351,4.904-9.683,8.533
				c-0.81,1.261-1.533,2.573-2.231,3.899c-0.314,0.596-0.679,1.203-0.92,1.826C112.395,180.708,112.284,181.127,112.105,181.525z"/>
		</g>
		<path d="M205.962,150.002c2.581-0.8,5.183-1.556,7.792-2.259c9.718-2.62,19.787-4.067,29.865-3.564
			c2.514,0.126,5.021,0.368,7.513,0.717c2.273,0.318,4.523,0.763,6.78,1.176c1.884,0.345,3.768,0.737,5.591,1.333
			c0.408,0.133,0.816,0.277,1.22,0.434c-1.193-4.306-5.255-7.584-9.159-9.362c-4.75-2.163-9.958-3.064-15.141-3.344
			c-2.655-0.143-5.315-0.127-7.971-0.043c-2.568,0.081-5.141,0.181-7.698,0.435c-1.721,0.171-3.486,0.403-5.238,0.742
			c-3.109,0.954-6.098,2.248-8.851,4.09c-2.641,1.767-5.103,3.859-7.187,6.262c-1.448,1.669-2.795,3.596-3.566,5.708
			C201.853,151.375,203.895,150.642,205.962,150.002z"/>
		<path d="M158.643,150.002c-2.581-0.8-5.183-1.556-7.792-2.259c-9.718-2.62-19.787-4.067-29.865-3.564
			c-2.514,0.126-5.021,0.368-7.513,0.717c-2.273,0.318-4.523,0.763-6.78,1.176c-1.884,0.345-3.768,0.737-5.591,1.333
			c-0.408,0.133-0.816,0.277-1.22,0.434c1.193-4.306,5.254-7.584,9.159-9.362c4.75-2.163,9.958-3.064,15.141-3.344
			c2.655-0.143,5.315-0.127,7.972-0.043c2.567,0.081,5.141,0.181,7.697,0.435c1.721,0.171,3.486,0.403,5.238,0.742
			c3.109,0.954,6.098,2.248,8.85,4.09c2.642,1.767,5.103,3.859,7.187,6.262c1.448,1.669,2.795,3.596,3.566,5.708
			C162.752,151.375,160.71,150.642,158.643,150.002z"/>
	</g>
	<path style="fill:#2B1F00;" d="M244.815,90.421c-1.359-4.539-3.341-8.924-5.878-12.926c-4.6-7.259-11.16-12.9-19.326-15.732
		c-15.031-5.213-34.312-1.458-46.149,9.141c-6.189,5.542-11.002,12.984-13.641,20.912c-1.05,0.336-2.093,0.68-3.129,1.035
		c-0.537,0.184-0.62,1.027,0.081,0.931c0.853-0.116,1.703-0.249,2.553-0.388c-0.108,0.369-0.219,0.737-0.318,1.107
		c-0.439,1.646,1.934,1.194,2.354,0.043c0.197-0.54,0.401-1.077,0.608-1.613c6-1.113,11.945-2.596,17.971-3.557
		c7.754-1.237,15.626-1.76,23.467-1.19c7.689,0.559,15.318,2.114,22.553,4.797c6.199,2.298,13.301,5.342,17.837,10.321
		c0.744,0.816,2.263,0.145,2.534-0.835C247.402,98.587,245.93,94.147,244.815,90.421z"/>
	<path style="fill:#664836;" d="M310.515,133.336c-0.955-7.263-2.131-14.407-4.236-21.437c-2.071-6.916-4.723-13.639-7.471-20.309
		c-9.962-24.178-23.005-50.346-46.731-63.708c-9.111-5.131-19.324-7.308-28.979-4.636c-4.784-6.543-12.252-10.931-19.985-13.273
		c-21.494-6.511-45.148,1.096-64.071,11.532c-20.909,11.531-39.192,27.825-53.928,46.552c-14.996,19.057-27.293,41.137-32.25,65.057
		c-2.82,13.606-3.135,27.812-1.097,41.552c0.862,5.813,2.234,11.601,3.672,17.299c1.14,4.521,2.523,9.586,5.984,12.919
		c0.633,0.609,1.974-0.38,1.964-1.115c-0.021-1.576,0.002-3.149,0.061-4.719c0.392,7.584,1.811,15.124,5.325,21.891
		c0.444,0.856,2.007-0.225,1.803-1.016c-2.265-8.769-0.652-19.072,2.624-27.383c3.375-8.563,9.887-15.683,16.936-21.428
		c6.992-5.698,14.758-10.256,22.591-14.678c7.81-4.409,15.2-9.588,21.738-15.744c0.405-0.382,0.808-0.77,1.21-1.162
		c-2.77,4.385-6.225,8.333-9.808,12.065c-3.774,3.931-7.771,7.62-12.157,10.863c-2.279,1.685-4.619,3.321-7.157,4.59
		c-2.039,1.02-4.126,1.944-6.001,3.257c-0.562,0.393-0.731,1.329,0.133,1.409c10.994,1.023,21.477-5.634,29.583-12.368
		c8.639-7.176,15.807-15.904,22.027-25.216c6.434-9.632,11.903-19.859,17.509-29.981c4.911-8.866,9.604-18.837,17.283-25.7
		c4.387-3.92,10.51-6.568,16.148-3.531c5.142,2.769,4.826,8.445,4.962,13.498c0.015,0.568,0.598,0.486,0.96,0.207
		c0.255-0.061,0.503-0.221,0.622-0.458c2.137-4.256,6.021-7.456,10.811-8.137c4.811-0.684,8.286,1.858,10.173,6.144
		c1.749,3.974,2.244,8.486,3.061,12.712c0.97,5.02,1.966,10.031,3.158,15.004c4.451,18.57,11.645,36.417,26.184,49.379
		c7.052,6.287,16.18,11.918,26.009,10.49c0.111-0.016,0.23-0.06,0.348-0.122c4.739,9.411,7.009,19.774,9.124,30.058
		c0.268,1.301,2.124,0.223,2.392-0.511c2.437-6.676,2.211-14.433,2.512-21.447c0.351-8.173,0.157-16.356-0.736-24.491
		c-0.073-0.666-0.156-1.332-0.238-1.999c1.566,6.894,2.84,13.899,4.99,20.624c0.35,1.094,2.06,0.368,2.256-0.482
		C313.053,161.433,312.37,147.441,310.515,133.336z M273.722,153.48c-0.241-0.433-0.474-0.87-0.701-1.308
		c1.79,1.59,3.594,3.17,5.181,4.954c3.487,3.921,6.585,8.195,9.247,12.717C281.823,165.373,277.22,159.785,273.722,153.48z"/>
	<path style="fill:#C32F1D;" d="M284.109,148.298c-4.96-0.62-10.539-0.62-19.219-4.34c-8.679-3.72-29.138-4.96-44.637-1.86
		c-15.499,3.1-21.444,12.139-23.248,13.949c-3.016,3.026-11.159,3.72-12.709,3.41c-1.55,0.31-9.693-0.384-12.709-3.41
		c-1.805-1.81-7.749-10.849-23.248-13.949c-15.499-3.1-35.958-1.86-44.637,1.86c-8.679,3.72-14.259,3.72-19.219,4.34
		c-4.96,0.62-4.96,4.34-4.96,4.34c0.62,9.299,3.893,8.406,5.58,11.779c0.62,1.24,1.24,8.059,1.86,16.739
		c0.62,8.679,8.059,22.939,19.839,27.898c11.779,4.96,34.718,7.439,48.977,0s17.359-24.798,19.839-33.478
		c2.48-8.679,8.679-6.82,8.679-6.82s6.2-1.86,8.68,6.82c2.48,8.679,5.58,26.038,19.839,33.478c14.259,7.439,37.197,4.96,48.977,0
		c11.779-4.96,19.219-19.219,19.839-27.898c0.62-8.679,1.24-15.499,1.86-16.739c1.686-3.373,4.96-2.48,5.58-11.779
		C289.068,152.637,289.068,148.918,284.109,148.298z M152.368,204.404c-14.259,7.44-37.198,6.2-48.977-3.1
		c-11.779-9.299-11.779-30.378-10.539-38.437c0,0,0-10.539,18.599-13.639s35.338-3.72,48.357,4.96c0,0,8.059,4.34,8.679,14.879
		C169.107,179.605,166.627,196.964,152.368,204.404z M265.2,201.304c-11.779,9.299-34.718,10.539-48.977,3.1
		c-14.259-7.439-16.739-24.798-16.119-35.338c0.62-10.539,8.679-14.879,8.679-14.879c13.019-8.68,29.758-8.059,48.357-4.96
		s18.599,13.639,18.599,13.639C276.979,170.926,276.979,192.005,265.2,201.304z"/>
</g>
</svg>
