<?xml version="1.0" encoding="utf-8"?>
<!-- Generator: Adobe Illustrator 27.5.0, SVG Export Plug-In . SVG Version: 6.00 Build 0)  -->
<svg version="1.1" xmlns="http://www.w3.org/2000/svg" xmlns:xlink="http://www.w3.org/1999/xlink" x="0px" y="0px"
	 viewBox="0 0 317.426 400" style="enable-background:new 0 0 317.426 400;" xml:space="preserve">
<g id="Layer_1">
</g>
<g id="Layer_2">
	<g>
		<g>
			<g>
				<path style="fill:#282E3F;" d="M229.34,96.753c1.268,20.435,5.373,41.486,13.077,60.469c3.15,7.76,7.062,16.151,12.691,22.458
					c13.474,15.096,28.416,27.758,38.928,45.321c9.46,15.805,16.37,34.142,15.354,52.822c-0.224,4.12-0.841,8.217-1.878,12.211
					c-9.682,37.294-43.39,75.304-148.816,75.304h0.031c-105.426,0-139.134-38.011-148.816-75.304
					c-1.037-3.994-1.654-8.092-1.878-12.211c-1.015-18.68,5.895-37.017,15.355-52.822c10.512-17.564,25.454-30.226,38.928-45.321
					c5.629-6.306,9.541-14.697,12.691-22.458c7.704-18.983,11.809-40.034,13.077-60.469c0,0,15.272-48.954,69.973-48.954
					S229.34,96.753,229.34,96.753z"/>
				<path style="opacity:0.4;fill:#282E3F;" d="M264.963,290.295c-11.153-9.192-23.293-16.763-35.516-24.406
					c-9.798-6.127-20.554-13.02-20.031-26.097c0.26-6.504,3.093-12.694,6.935-17.949c5.644-7.72,13.121-13.826,19.083-21.312
					c4.527-5.686,8.459-11.829,11.442-18.466c1.313-2.923,2.426-5.904,3.364-8.93c-3.165-5.022-5.672-10.614-7.823-15.912
					c-7.704-18.983-11.809-40.034-13.077-60.469c0,0-5.385-15.897-20.139-29.573H107.435C93.045,80.855,88.086,96.753,88.086,96.753
					c-1.268,20.436-5.373,41.486-13.077,60.469c-2.112,5.205-4.571,10.69-7.657,15.643c0.955,3.118,2.098,6.189,3.45,9.199
					c2.983,6.638,6.915,12.781,11.442,18.466c5.961,7.486,13.439,13.592,19.083,21.312c3.842,5.255,6.674,11.445,6.935,17.949
					c0.524,13.077-10.232,19.97-20.031,26.097c-12.223,7.643-24.363,15.215-35.516,24.406
					c-15.168,12.501-18.551,27.965-17.41,41.643c21.801,19.371,59.374,33.398,123.408,33.4c64.3-0.002,101.919-14.145,123.68-33.641
					C283.474,318.078,280.041,302.722,264.963,290.295z"/>
			</g>
			<g>
				<g>
					<path style="fill:#E9934A;" d="M280.727,342.565c0-14.865-6.633-27.865-18.121-37.151c-8.92-7.211-19.558-12.002-30.186-16.108
						c-12.927-4.994-29.565-7.103-38.2-19.124c-7.007-9.755-8.135-22.74-8.352-34.273c-0.158-8.411,0.278-16.906,1.429-25.245
						h-53.859c1.151,8.339,1.587,16.834,1.429,25.245c-0.217,11.533-1.344,24.518-8.352,34.273
						c-8.634,12.021-25.273,14.13-38.2,19.124c-10.628,4.106-21.266,8.897-30.186,16.108C46.64,314.7,40.008,327.7,40.008,342.565
						c0,0,34.838,49.652,124.519,47.358C252.74,387.667,280.727,342.565,280.727,342.565z"/>
				</g>
				<path style="opacity:0.7;fill:#E9934A;" d="M158.733,245.583c10.498-1.043,19.476-4.144,27.156-8.727
					c-0.007-0.317-0.014-0.633-0.02-0.947c-0.158-8.411,0.278-16.906,1.429-25.245h-53.859c1.151,8.339,1.587,16.834,1.429,25.245
					c-0.017,0.911-0.041,1.833-0.072,2.76c6.932,3.587,14.85,6.015,23.898,6.914H158.733z"/>
			</g>
			<g>
				<path style="fill:#968F37;" d="M262.606,305.414c-8.92-7.211-19.558-12.002-30.186-16.108c-0.786-0.303-1.585-0.596-2.395-0.881
					c-1.704,12.65-12.302,66.705-69.035,66.705c-55.526,0-64.091-53.725-65.393-68.317c-2.502,0.788-4.953,1.594-7.282,2.494
					c-10.628,4.106-21.266,8.897-30.186,16.108C46.64,314.7,40.008,327.7,40.008,342.565c0,0,34.838,49.652,124.519,47.358
					c88.213-2.256,116.2-47.358,116.2-47.358C280.727,327.7,274.095,314.7,262.606,305.414z"/>
				<path style="opacity:0.3;fill:#968F37;" d="M262.606,305.414c-8.92-7.211-19.558-12.002-30.186-16.108
					c-0.786-0.303-1.585-0.596-2.395-0.881c-1.704,12.65-12.302,66.705-69.035,66.705c-1.265,0-2.506-0.029-3.723-0.083
					c-4.283,5.453-9.164,10.504-14.565,14.851c-5.602,4.509-11.76,8.32-18.25,11.413c-3.188,1.519-6.459,2.867-9.795,4.028
					c14.282,3.22,30.84,5.073,49.869,4.586c88.213-2.256,116.2-47.358,116.2-47.358C280.727,327.7,274.095,314.7,262.606,305.414z"
					/>
				<path style="fill:#FCAF17;" d="M160.821,359.698c57.45,0,71.549-50.793,74.768-69.143c-1.055-0.423-2.112-0.841-3.168-1.249
					c-0.786-0.303-1.585-0.596-2.395-0.881c-0.005,0.036-0.01,0.074-0.015,0.111c-0.01,0.07-0.019,0.141-0.029,0.214
					c-0.006,0.047-0.013,0.095-0.02,0.143c-0.009,0.066-0.019,0.132-0.028,0.199c-0.008,0.053-0.016,0.108-0.024,0.162
					c-0.009,0.065-0.019,0.13-0.029,0.197c-0.008,0.057-0.017,0.114-0.026,0.172c-0.01,0.069-0.021,0.139-0.032,0.21
					c-0.009,0.057-0.018,0.114-0.027,0.172c-0.011,0.074-0.023,0.149-0.035,0.225c-0.009,0.059-0.019,0.117-0.028,0.177
					c-0.013,0.08-0.026,0.162-0.04,0.244c-0.009,0.057-0.018,0.112-0.028,0.17c-0.017,0.103-0.035,0.209-0.053,0.315
					c-0.006,0.038-0.012,0.075-0.019,0.114c-0.024,0.145-0.05,0.292-0.076,0.441c-0.008,0.049-0.018,0.099-0.026,0.148
					c-0.018,0.102-0.036,0.204-0.055,0.308c-0.011,0.063-0.023,0.127-0.035,0.191c-0.017,0.096-0.035,0.192-0.053,0.289
					c-0.012,0.065-0.024,0.13-0.036,0.195c-0.018,0.098-0.037,0.197-0.056,0.296c-0.013,0.069-0.026,0.138-0.04,0.208
					c-0.019,0.096-0.038,0.193-0.057,0.291c-0.015,0.074-0.029,0.148-0.044,0.223c-0.02,0.101-0.04,0.203-0.061,0.306
					c-0.014,0.071-0.028,0.141-0.043,0.213c-0.024,0.117-0.048,0.236-0.073,0.355c-0.012,0.059-0.024,0.117-0.037,0.177
					c-0.037,0.179-0.076,0.359-0.115,0.542c-0.006,0.027-0.012,0.056-0.018,0.083c-0.034,0.158-0.068,0.316-0.104,0.477
					c-0.014,0.064-0.029,0.13-0.044,0.195c-0.028,0.124-0.055,0.248-0.084,0.374c-0.017,0.076-0.035,0.152-0.052,0.228
					c-0.027,0.118-0.054,0.236-0.082,0.356c-0.019,0.08-0.038,0.161-0.057,0.242c-0.028,0.117-0.056,0.234-0.084,0.353
					c-0.02,0.083-0.04,0.167-0.06,0.251c-0.029,0.121-0.059,0.243-0.089,0.365c-0.02,0.081-0.04,0.161-0.06,0.242
					c-0.033,0.131-0.066,0.263-0.099,0.395c-0.019,0.076-0.038,0.151-0.057,0.227c-0.04,0.158-0.081,0.316-0.123,0.476
					c-0.013,0.051-0.026,0.101-0.039,0.151c-0.055,0.21-0.111,0.422-0.169,0.636c-0.015,0.055-0.03,0.111-0.045,0.167
					c-0.043,0.159-0.086,0.319-0.131,0.48c-0.022,0.079-0.044,0.159-0.066,0.238c-0.039,0.139-0.078,0.278-0.117,0.418
					c-0.025,0.087-0.05,0.175-0.075,0.263c-0.038,0.134-0.077,0.268-0.116,0.402c-0.027,0.092-0.054,0.184-0.081,0.277
					c-0.039,0.134-0.079,0.268-0.119,0.403c-0.027,0.092-0.055,0.184-0.082,0.276c-0.042,0.14-0.085,0.281-0.128,0.423
					c-0.027,0.087-0.053,0.175-0.08,0.262c-0.048,0.155-0.097,0.311-0.146,0.467c-0.024,0.075-0.047,0.15-0.071,0.225
					c-0.146,0.463-0.298,0.93-0.455,1.402c-0.025,0.076-0.051,0.152-0.077,0.228c-0.054,0.161-0.108,0.322-0.163,0.483
					c-0.031,0.09-0.062,0.181-0.094,0.271c-0.051,0.15-0.103,0.299-0.156,0.449c-0.033,0.096-0.067,0.191-0.101,0.287
					c-0.052,0.146-0.104,0.293-0.157,0.44c-0.035,0.098-0.07,0.196-0.106,0.294c-0.054,0.15-0.109,0.3-0.164,0.45
					c-0.035,0.094-0.069,0.188-0.104,0.283c-0.059,0.159-0.119,0.318-0.179,0.478c-0.033,0.087-0.065,0.174-0.099,0.261
					c-0.072,0.189-0.145,0.379-0.219,0.568c-0.022,0.057-0.044,0.114-0.066,0.172c-0.097,0.249-0.196,0.498-0.296,0.748
					c-0.021,0.052-0.042,0.104-0.063,0.156c-0.079,0.197-0.159,0.394-0.24,0.591c-0.036,0.087-0.072,0.175-0.109,0.262
					c-0.068,0.163-0.136,0.327-0.205,0.491c-0.041,0.097-0.082,0.194-0.123,0.291c-0.066,0.156-0.133,0.313-0.201,0.47
					c-0.043,0.1-0.086,0.2-0.13,0.3c-0.068,0.155-0.136,0.31-0.204,0.465c-0.044,0.1-0.089,0.201-0.134,0.301
					c-0.071,0.159-0.143,0.319-0.216,0.478c-0.043,0.096-0.087,0.191-0.13,0.287c-0.08,0.175-0.161,0.35-0.243,0.525
					c-0.037,0.08-0.074,0.16-0.112,0.24c-0.116,0.246-0.233,0.493-0.352,0.74c-0.004,0.009-0.008,0.017-0.013,0.026
					c-0.124,0.257-0.25,0.514-0.377,0.771c-0.036,0.073-0.073,0.147-0.11,0.22c-0.091,0.182-0.182,0.365-0.275,0.547
					c-0.048,0.094-0.096,0.188-0.145,0.283c-0.083,0.163-0.167,0.325-0.251,0.488c-0.053,0.101-0.106,0.202-0.159,0.303
					c-0.083,0.157-0.166,0.314-0.25,0.471c-0.055,0.102-0.109,0.205-0.165,0.307c-0.085,0.158-0.172,0.317-0.258,0.475
					c-0.055,0.1-0.109,0.199-0.164,0.299c-0.091,0.165-0.184,0.331-0.277,0.496c-0.052,0.092-0.103,0.184-0.155,0.276
					c-0.109,0.191-0.219,0.382-0.329,0.573c-0.038,0.065-0.075,0.13-0.113,0.195c-0.15,0.257-0.301,0.514-0.455,0.771
					c-0.027,0.045-0.054,0.089-0.081,0.134c-0.126,0.21-0.254,0.421-0.383,0.631c-0.053,0.086-0.107,0.173-0.161,0.259
					c-0.105,0.169-0.21,0.337-0.316,0.506c-0.061,0.097-0.123,0.194-0.184,0.29c-0.101,0.158-0.202,0.317-0.305,0.475
					c-0.065,0.1-0.131,0.201-0.196,0.301c-0.102,0.155-0.204,0.31-0.307,0.465c-0.067,0.101-0.134,0.201-0.201,0.301
					c-0.106,0.157-0.212,0.314-0.319,0.471c-0.066,0.096-0.131,0.192-0.197,0.288c-0.118,0.17-0.236,0.34-0.356,0.509
					c-0.057,0.081-0.113,0.162-0.17,0.243c-0.165,0.232-0.331,0.463-0.499,0.694c-0.013,0.018-0.026,0.036-0.039,0.054
					c-0.183,0.251-0.368,0.5-0.554,0.749c-0.052,0.069-0.105,0.138-0.158,0.208c-0.134,0.178-0.269,0.355-0.405,0.532
					c-0.069,0.09-0.14,0.179-0.209,0.269c-0.122,0.156-0.244,0.313-0.367,0.468c-0.076,0.096-0.153,0.192-0.229,0.287
					c-0.12,0.15-0.241,0.299-0.363,0.449c-0.079,0.097-0.158,0.193-0.238,0.29c-0.123,0.149-0.247,0.298-0.371,0.446
					c-0.079,0.094-0.158,0.189-0.238,0.283c-0.13,0.154-0.262,0.307-0.395,0.46c-0.075,0.087-0.149,0.174-0.225,0.26
					c-0.152,0.174-0.307,0.348-0.461,0.521c-0.057,0.064-0.113,0.128-0.17,0.191c-0.214,0.237-0.429,0.474-0.647,0.709
					c-0.031,0.033-0.062,0.066-0.093,0.099c-0.186,0.2-0.374,0.4-0.564,0.598c-0.075,0.078-0.151,0.156-0.226,0.234
					c-0.148,0.153-0.296,0.306-0.446,0.458c-0.087,0.088-0.174,0.175-0.262,0.263c-0.141,0.142-0.283,0.283-0.426,0.424
					c-0.092,0.09-0.184,0.18-0.276,0.27c-0.142,0.138-0.284,0.275-0.428,0.412c-0.094,0.089-0.188,0.179-0.283,0.268
					c-0.147,0.138-0.295,0.276-0.444,0.413c-0.092,0.085-0.183,0.169-0.275,0.254c-0.16,0.146-0.322,0.291-0.485,0.436
					c-0.083,0.074-0.165,0.148-0.248,0.221c-0.21,0.185-0.422,0.369-0.635,0.552c-0.037,0.031-0.072,0.063-0.109,0.095
					c-0.252,0.215-0.506,0.428-0.762,0.64c-0.069,0.057-0.139,0.113-0.208,0.17c-0.187,0.153-0.375,0.306-0.565,0.457
					c-0.095,0.076-0.191,0.151-0.287,0.226c-0.167,0.132-0.334,0.263-0.503,0.393c-0.105,0.081-0.21,0.161-0.316,0.241
					c-0.163,0.124-0.327,0.247-0.491,0.37c-0.109,0.081-0.218,0.162-0.328,0.242c-0.166,0.121-0.333,0.242-0.5,0.362
					c-0.109,0.078-0.218,0.157-0.328,0.234c-0.175,0.124-0.351,0.246-0.528,0.368c-0.104,0.072-0.208,0.144-0.313,0.216
					c-0.201,0.137-0.403,0.272-0.606,0.406c-0.082,0.055-0.164,0.11-0.247,0.164c-0.288,0.189-0.578,0.376-0.871,0.56
					c-0.032,0.02-0.065,0.04-0.097,0.06c-0.26,0.163-0.523,0.325-0.787,0.486c-0.098,0.059-0.198,0.118-0.297,0.177
					c-0.2,0.12-0.401,0.239-0.603,0.357c-0.116,0.067-0.233,0.134-0.35,0.201c-0.188,0.108-0.378,0.215-0.568,0.322
					c-0.123,0.069-0.248,0.137-0.372,0.206c-0.188,0.103-0.376,0.205-0.566,0.306c-0.127,0.068-0.253,0.135-0.381,0.202
					c-0.193,0.101-0.388,0.202-0.583,0.301c-0.124,0.063-0.248,0.127-0.373,0.19c-0.21,0.105-0.421,0.209-0.633,0.312
					c-0.112,0.054-0.223,0.11-0.336,0.164c-0.264,0.126-0.53,0.25-0.797,0.373c-0.063,0.029-0.125,0.059-0.188,0.088
					c-0.331,0.151-0.666,0.3-1.003,0.447c-0.089,0.039-0.179,0.076-0.268,0.114c-0.249,0.107-0.498,0.213-0.749,0.316
					c-0.125,0.052-0.252,0.102-0.378,0.153c-0.219,0.089-0.437,0.177-0.658,0.263c-0.138,0.054-0.277,0.107-0.415,0.16
					c-0.213,0.082-0.427,0.163-0.642,0.242c-0.143,0.053-0.286,0.105-0.43,0.157c-0.215,0.078-0.432,0.155-0.65,0.231
					c-0.144,0.05-0.287,0.1-0.432,0.15c-0.226,0.077-0.453,0.152-0.681,0.227c-0.138,0.045-0.275,0.091-0.414,0.136
					c-0.253,0.081-0.509,0.16-0.765,0.239c-0.115,0.035-0.228,0.071-0.344,0.106c-0.373,0.112-0.748,0.222-1.127,0.328
					c-0.024,0.007-0.049,0.013-0.073,0.02c-0.354,0.099-0.711,0.195-1.07,0.289c-0.126,0.033-0.254,0.064-0.381,0.096
					c-0.259,0.066-0.519,0.132-0.781,0.195c-0.15,0.036-0.301,0.071-0.452,0.106c-0.243,0.057-0.486,0.113-0.73,0.168
					c-0.16,0.036-0.32,0.07-0.481,0.105c-0.24,0.052-0.481,0.102-0.723,0.152c-0.164,0.033-0.328,0.067-0.493,0.099
					c-0.245,0.048-0.492,0.095-0.74,0.141c-0.162,0.03-0.323,0.06-0.486,0.089c-0.264,0.047-0.53,0.092-0.797,0.136
					c-0.148,0.025-0.295,0.05-0.443,0.074c-0.322,0.052-0.647,0.1-0.973,0.148c-0.095,0.014-0.189,0.029-0.285,0.043
					c-0.422,0.06-0.848,0.117-1.276,0.17c-0.106,0.013-0.214,0.025-0.321,0.038c-0.323,0.039-0.647,0.077-0.974,0.111
					c-0.157,0.017-0.316,0.032-0.474,0.048c-0.279,0.028-0.558,0.056-0.84,0.081c-0.176,0.016-0.352,0.03-0.529,0.045
					c-0.269,0.022-0.538,0.044-0.809,0.063c-0.183,0.013-0.367,0.026-0.55,0.038c-0.27,0.018-0.541,0.034-0.814,0.049
					c-0.184,0.01-0.369,0.02-0.554,0.029c-0.281,0.014-0.564,0.025-0.848,0.036c-0.178,0.007-0.355,0.014-0.533,0.02
					c-0.313,0.01-0.628,0.017-0.943,0.024c-0.152,0.003-0.302,0.008-0.454,0.01c-0.469,0.008-0.94,0.012-1.415,0.012
					c-0.471,0-0.939-0.005-1.403-0.012c-0.149-0.003-0.297-0.007-0.446-0.01c-0.314-0.007-0.628-0.014-0.939-0.025
					c-0.174-0.006-0.347-0.013-0.52-0.02c-0.285-0.011-0.57-0.024-0.852-0.038c-0.178-0.009-0.354-0.019-0.531-0.029
					c-0.28-0.016-0.558-0.034-0.835-0.052c-0.171-0.012-0.343-0.023-0.513-0.036c-0.289-0.022-0.577-0.046-0.863-0.07
					c-0.152-0.013-0.305-0.025-0.457-0.039c-0.35-0.032-0.698-0.068-1.044-0.105c-0.084-0.009-0.169-0.017-0.252-0.026
					c-0.43-0.047-0.856-0.099-1.279-0.153c-0.11-0.014-0.219-0.03-0.329-0.045c-0.312-0.042-0.622-0.084-0.93-0.129
					c-0.149-0.022-0.297-0.045-0.446-0.068c-0.267-0.041-0.534-0.083-0.799-0.127c-0.158-0.026-0.315-0.053-0.473-0.08
					c-0.256-0.044-0.51-0.09-0.763-0.136c-0.155-0.029-0.31-0.057-0.464-0.087c-0.26-0.05-0.517-0.102-0.774-0.154
					c-0.142-0.029-0.284-0.058-0.425-0.088c-0.29-0.061-0.577-0.125-0.863-0.19c-0.104-0.024-0.21-0.046-0.314-0.07
					c-0.391-0.09-0.779-0.184-1.164-0.281c-0.05-0.013-0.1-0.026-0.15-0.039c-0.331-0.084-0.661-0.171-0.988-0.259
					c-0.123-0.033-0.244-0.068-0.366-0.102c-0.254-0.071-0.507-0.142-0.759-0.216c-0.137-0.04-0.272-0.081-0.408-0.122
					c-0.237-0.071-0.472-0.143-0.706-0.216c-0.137-0.043-0.274-0.087-0.41-0.13c-0.234-0.075-0.467-0.152-0.699-0.23
					c-0.129-0.043-0.258-0.086-0.386-0.13c-0.252-0.087-0.502-0.175-0.751-0.264c-0.103-0.037-0.208-0.073-0.311-0.111
					c-0.706-0.258-1.4-0.527-2.083-0.807c-0.089-0.037-0.178-0.075-0.267-0.112c-0.249-0.104-0.497-0.208-0.744-0.315
					c-0.114-0.049-0.227-0.1-0.34-0.15c-0.221-0.097-0.44-0.195-0.658-0.295c-0.118-0.054-0.236-0.109-0.354-0.163
					c-0.214-0.1-0.427-0.201-0.639-0.303c-0.113-0.055-0.226-0.109-0.339-0.164c-0.223-0.109-0.444-0.22-0.665-0.332
					c-0.096-0.049-0.194-0.097-0.289-0.146c-0.272-0.14-0.542-0.282-0.81-0.425c-0.041-0.022-0.083-0.043-0.124-0.065
					c-0.316-0.17-0.629-0.343-0.939-0.518c-0.049-0.028-0.097-0.056-0.146-0.084c-0.254-0.145-0.507-0.29-0.758-0.438
					c-0.09-0.053-0.179-0.107-0.268-0.16c-0.209-0.125-0.416-0.25-0.622-0.377c-0.1-0.061-0.198-0.123-0.297-0.185
					c-0.197-0.123-0.392-0.247-0.586-0.372c-0.098-0.063-0.195-0.126-0.292-0.189c-0.199-0.13-0.397-0.261-0.594-0.393
					c-0.086-0.058-0.173-0.116-0.259-0.174c-0.225-0.153-0.448-0.307-0.67-0.463c-0.055-0.038-0.11-0.076-0.164-0.114
					c-0.559-0.395-1.107-0.799-1.645-1.21c-0.065-0.05-0.129-0.1-0.193-0.15c-0.2-0.155-0.399-0.31-0.597-0.466
					c-0.08-0.064-0.16-0.128-0.24-0.192c-0.181-0.146-0.362-0.292-0.541-0.44c-0.082-0.068-0.164-0.136-0.246-0.204
					c-0.178-0.149-0.356-0.299-0.532-0.45c-0.076-0.065-0.152-0.129-0.227-0.195c-0.192-0.166-0.382-0.334-0.572-0.502
					c-0.056-0.049-0.112-0.098-0.167-0.148c-0.496-0.445-0.982-0.896-1.458-1.354c-0.037-0.036-0.073-0.072-0.11-0.108
					c-0.196-0.19-0.391-0.38-0.584-0.572c-0.063-0.063-0.125-0.125-0.187-0.188c-0.167-0.168-0.333-0.336-0.498-0.506
					c-0.068-0.07-0.135-0.14-0.203-0.21c-0.16-0.167-0.319-0.334-0.477-0.502c-0.064-0.069-0.129-0.137-0.193-0.206
					c-0.166-0.179-0.331-0.358-0.494-0.539c-0.052-0.057-0.104-0.114-0.155-0.171c-0.202-0.224-0.402-0.449-0.599-0.676
					c-0.011-0.013-0.022-0.025-0.034-0.038c-0.219-0.252-0.436-0.505-0.65-0.759c-0.001-0.001-0.001-0.002-0.002-0.002
					c-0.203-0.241-0.404-0.483-0.602-0.727c-0.045-0.055-0.09-0.111-0.135-0.166c-0.155-0.191-0.309-0.383-0.462-0.576
					c-0.054-0.068-0.108-0.137-0.161-0.205c-0.144-0.183-0.286-0.366-0.427-0.55c-0.054-0.071-0.108-0.141-0.162-0.212
					c-0.144-0.189-0.286-0.378-0.427-0.568c-0.047-0.063-0.094-0.125-0.14-0.188c-0.161-0.219-0.321-0.439-0.479-0.659
					c-0.023-0.032-0.047-0.065-0.07-0.097c-0.372-0.52-0.735-1.045-1.09-1.572c-0.027-0.04-0.053-0.08-0.08-0.121
					c-0.146-0.217-0.29-0.435-0.432-0.654c-0.042-0.064-0.084-0.129-0.125-0.193c-0.127-0.197-0.254-0.394-0.379-0.591
					c-0.045-0.071-0.09-0.142-0.135-0.213c-0.123-0.196-0.245-0.393-0.366-0.589c-0.041-0.067-0.083-0.134-0.124-0.202
					c-0.131-0.215-0.261-0.431-0.389-0.646c-0.028-0.046-0.056-0.092-0.083-0.139c-0.32-0.54-0.631-1.081-0.935-1.625
					c-0.008-0.015-0.017-0.03-0.025-0.046c-0.139-0.249-0.275-0.498-0.41-0.747c-0.031-0.058-0.062-0.116-0.093-0.173
					c-0.113-0.209-0.224-0.418-0.334-0.627c-0.036-0.069-0.073-0.138-0.109-0.207c-0.106-0.202-0.21-0.404-0.314-0.607
					c-0.035-0.068-0.07-0.137-0.105-0.205c-0.108-0.212-0.214-0.424-0.32-0.637c-0.027-0.055-0.055-0.11-0.082-0.165
					c-0.128-0.259-0.254-0.518-0.379-0.777c-0.003-0.007-0.007-0.014-0.01-0.02c-0.263-0.549-0.519-1.098-0.767-1.647
					c-0.022-0.048-0.043-0.096-0.065-0.144c-0.098-0.219-0.196-0.437-0.292-0.656c-0.03-0.068-0.059-0.136-0.089-0.204
					c-0.088-0.202-0.176-0.404-0.262-0.606c-0.03-0.071-0.06-0.141-0.09-0.212c-0.087-0.205-0.173-0.411-0.258-0.616
					c-0.026-0.063-0.052-0.126-0.078-0.189c-0.096-0.233-0.191-0.466-0.284-0.698c-0.013-0.032-0.026-0.064-0.039-0.095
					c-0.218-0.545-0.43-1.089-0.635-1.631c-0.013-0.035-0.026-0.07-0.039-0.105c-0.086-0.228-0.17-0.455-0.254-0.682
					c-0.024-0.065-0.047-0.129-0.071-0.194c-0.073-0.2-0.145-0.4-0.216-0.599c-0.025-0.071-0.051-0.142-0.076-0.213
					c-0.07-0.196-0.138-0.392-0.206-0.588c-0.024-0.068-0.047-0.136-0.071-0.205c-0.072-0.209-0.143-0.417-0.213-0.625
					c-0.017-0.051-0.035-0.102-0.052-0.154c-0.177-0.529-0.348-1.056-0.513-1.579c-0.006-0.018-0.011-0.036-0.017-0.054
					c-0.074-0.237-0.147-0.472-0.219-0.707c-0.019-0.061-0.037-0.122-0.056-0.184c-0.058-0.192-0.116-0.383-0.172-0.573
					c-0.022-0.075-0.045-0.15-0.067-0.225c-0.053-0.179-0.105-0.358-0.156-0.536c-0.022-0.076-0.044-0.152-0.066-0.228
					c-0.052-0.183-0.104-0.365-0.154-0.546c-0.019-0.067-0.038-0.134-0.056-0.201c-0.06-0.215-0.118-0.429-0.176-0.642
					c-0.008-0.031-0.017-0.062-0.025-0.093c-0.134-0.497-0.263-0.99-0.386-1.478c-0.016-0.061-0.031-0.122-0.046-0.183
					c-0.045-0.178-0.089-0.355-0.132-0.532c-0.019-0.077-0.038-0.153-0.056-0.23c-0.039-0.161-0.078-0.32-0.116-0.48
					c-0.019-0.081-0.038-0.161-0.057-0.241c-0.037-0.158-0.074-0.315-0.11-0.472c-0.018-0.077-0.036-0.155-0.053-0.232
					c-0.038-0.167-0.076-0.333-0.113-0.499c-0.014-0.063-0.028-0.126-0.042-0.189c-0.101-0.456-0.198-0.907-0.29-1.35
					c-0.014-0.066-0.027-0.132-0.041-0.197c-0.032-0.153-0.063-0.306-0.093-0.457c-0.017-0.084-0.033-0.167-0.05-0.25
					c-0.027-0.133-0.053-0.266-0.078-0.398c-0.017-0.088-0.034-0.175-0.051-0.262c-0.024-0.126-0.048-0.252-0.072-0.377
					c-0.017-0.088-0.033-0.176-0.05-0.264c-0.023-0.124-0.046-0.248-0.068-0.371c-0.016-0.085-0.031-0.171-0.046-0.255
					c-0.024-0.133-0.047-0.264-0.07-0.395c-0.013-0.072-0.026-0.145-0.038-0.217c-0.034-0.194-0.066-0.385-0.098-0.575
					c-0.014-0.086-0.028-0.17-0.042-0.255c-0.018-0.109-0.036-0.218-0.054-0.326c-0.016-0.097-0.031-0.193-0.046-0.289
					c-0.015-0.094-0.03-0.188-0.045-0.281c-0.016-0.099-0.031-0.198-0.046-0.296c-0.014-0.088-0.027-0.175-0.04-0.262
					c-0.015-0.099-0.03-0.197-0.044-0.295c-0.012-0.083-0.024-0.166-0.036-0.248c-0.015-0.1-0.029-0.199-0.043-0.297
					c-0.01-0.073-0.02-0.144-0.031-0.216c-0.015-0.106-0.03-0.212-0.044-0.316c-0.002-0.017-0.005-0.033-0.007-0.05
					c-0.038-0.276-0.074-0.545-0.108-0.809c-0.004-0.032-0.008-0.065-0.013-0.097c-0.015-0.117-0.029-0.232-0.044-0.347
					c-0.006-0.044-0.011-0.088-0.016-0.131c-0.014-0.113-0.027-0.223-0.04-0.334c-0.005-0.043-0.01-0.086-0.015-0.129
					c-0.013-0.111-0.026-0.22-0.038-0.329c-0.004-0.037-0.008-0.073-0.013-0.109c-0.013-0.115-0.026-0.228-0.038-0.34
					c-0.002-0.018-0.004-0.035-0.006-0.053c-0.073-0.669-0.134-1.285-0.184-1.845c-1.961,0.617-3.888,1.248-5.752,1.924
					C92.301,308.395,104.139,359.698,160.821,359.698z"/>
			</g>
			<g>
				<g>
					<path style="fill:#594A42;" d="M158.915,322.979c-3.944-2.512-7.315-5.745-10.463-9.169
						c-11.061-12.294-18.474-27.571-22.979-43.386c-0.075-0.27,0.083-0.55,0.353-0.625c0.256-0.071,0.521,0.069,0.612,0.314
						c1.809,4.905,3.763,9.743,5.952,14.467c4.351,9.417,9.661,18.457,16.205,26.518c2.856,3.512,5.946,6.867,9.379,9.823
						c0.493,0.423,1.004,0.848,1.507,1.219C159.978,322.511,159.48,323.31,158.915,322.979L158.915,322.979z"/>
					<path style="fill:#594A42;" d="M160.943,322.126c4.085-3.166,7.606-7.034,10.875-11.024c2.423-2.988,4.735-6.224,6.816-9.464
						c6.352-9.851,11.155-20.588,15.335-31.526c0.1-0.262,0.394-0.393,0.656-0.293c0.244,0.093,0.373,0.357,0.309,0.604
						c-1.343,5.091-3.097,10.076-5.149,14.94c-5.195,12.115-12.365,23.616-22.029,32.677c-1.973,1.805-3.982,3.503-6.264,4.938
						c-0.238,0.148-0.551,0.074-0.698-0.163C160.649,322.582,160.719,322.277,160.943,322.126L160.943,322.126z"/>
				</g>
				<g>
					<g>
						<circle style="fill:#F5940D;" cx="160.114" cy="333.939" r="10.384"/>
						<path style="fill:#F5940D;" d="M163.277,323.574c0,1.747-1.417,3.164-3.164,3.164s-3.164-1.416-3.164-3.164
							c0-1.747,1.416-3.164,3.164-3.164S163.277,321.827,163.277,323.574z"/>
					</g>
					<circle style="fill:#F5940D;" cx="160.114" cy="333.939" r="10.384"/>
					<path style="opacity:0.5;fill:#F5940D;" d="M160.114,328.106c2.115,0,3.83-1.699,3.862-3.806
						c-1.194-0.479-2.497-0.745-3.862-0.745c-1.365,0-2.668,0.266-3.862,0.745C156.284,326.407,157.999,328.106,160.114,328.106z"/>
					<path style="fill:#F5940D;" d="M163.277,323.574c0,1.747-1.417,3.164-3.164,3.164s-3.164-1.416-3.164-3.164
						c0-1.747,1.416-3.164,3.164-3.164S163.277,321.827,163.277,323.574z"/>
				</g>
			</g>
			<g>
				<path style="fill:#968F37;" d="M262.606,305.414c-8.92-7.211-19.558-12.002-30.186-16.108c-3.112-1.202-6.438-2.237-9.817-3.283
					c-16.509,20.487-56.02,83.489-68.736,103.928c3.464,0.071,7.016,0.065,10.66-0.028c82.837-2.119,112.564-42.018,115.88-46.874
					l0.305-1.555C280.401,327.076,273.818,314.476,262.606,305.414z"/>
				<path style="opacity:0.3;fill:#968F37;" d="M262.606,305.414c-8.92-7.211-19.558-12.002-30.186-16.108
					c-3.112-1.202-6.438-2.237-9.817-3.283c-16.509,20.487-56.02,83.489-68.736,103.928c3.464,0.071,7.016,0.065,10.66-0.028
					c82.837-2.119,112.564-42.018,115.88-46.874l0.305-1.555C280.401,327.076,273.818,314.476,262.606,305.414z"/>
				<path style="fill:#FCAF17;" d="M205.361,301.308c-0.232,0.32-0.466,0.642-0.701,0.966c-0.47,0.648-0.945,1.307-1.424,1.973
					c-0.479,0.667-0.964,1.342-1.452,2.026c-0.488,0.684-0.981,1.375-1.477,2.074c-0.248,0.35-0.497,0.701-0.747,1.054
					c-0.5,0.706-1.004,1.42-1.511,2.141c-0.761,1.08-1.529,2.176-2.303,3.283c-0.774,1.108-1.554,2.228-2.339,3.359
					c-0.523,0.754-1.049,1.513-1.576,2.276c-0.791,1.144-1.585,2.297-2.383,3.458c-1.063,1.547-2.131,3.107-3.201,4.674
					c-0.802,1.175-1.605,2.355-2.408,3.536c-0.803,1.182-1.605,2.365-2.406,3.549c-0.534,0.789-1.067,1.578-1.599,2.367
					c-0.798,1.183-1.593,2.364-2.385,3.542c-0.792,1.178-1.579,2.352-2.362,3.521c-0.261,0.389-0.521,0.778-0.781,1.167
					c-6.492,9.705-12.601,18.969-17.58,26.569c-5.093,7.776-9.002,13.807-10.932,16.792c2.635,0.152,5.325,0.259,8.071,0.316
					c12.716-20.439,52.227-83.441,68.736-103.928c-1.45-0.449-2.91-0.9-4.366-1.368
					C214.895,288.506,210.438,294.328,205.361,301.308z"/>
			</g>
			<g style="opacity:0.3;">
				<path style="fill:#968F37;" d="M268.613,311.095c-3.4,15.592-12.095,29.848-23.349,41.186
					c-13.854,13.956-32.075,22.875-51.128,27.232c-19.874,4.544-40.427,3.97-60.073-1.408c-20.141-5.514-38.62-16.043-54.949-28.925
					c-12.359-9.75-24.292-22.534-26.761-38.335c-7.904,8.652-12.344,19.562-12.344,31.722c0,0,34.838,49.652,124.519,47.358
					c88.213-2.256,116.2-47.358,116.2-47.358C280.727,330.523,276.374,319.706,268.613,311.095z"/>
			</g>
		</g>
		<g>
			<g>
				<g>
					<g>
						<path style="fill:#E9934A;" d="M223.147,154.626c0.194-0.56,8.811-22.613,21.36-19.18c4.835,1.323,5.993,6.194,5.785,10.707
							c-0.304,6.6-2.654,13.784-5.881,19.535c-2.974,5.3-7.351,9.926-13.17,12.021c-3.229,1.163-10.336,3.246-12.32-1.017
							c-0.714-1.534-0.37-3.407,0.098-4.956C222.918,158.795,223.147,154.626,223.147,154.626z"/>
						<path style="fill:#E9934A;" d="M234.194,168.927c0,0,6.669-0.172,10.786-9.016c4.117-8.844,3.047-19.772-2.252-19.649
							c-5.299,0.123-14.531,14.652-14.531,14.652s6.073,2.675,1.474,8.32c0,0,9.343-1.468,9.243-7.021s-5.708-5.799-5.708-5.799
							s8.131-9.85,11.373-7.001C247.82,146.262,243.391,167.191,234.194,168.927z"/>
					</g>
					<g>
						<g>
							<circle style="fill:#F5940D;" cx="226.193" cy="198.528" r="7.714"/>
							<circle style="fill:#F5940D;" cx="226.193" cy="190.828" r="2.35"/>
							<path style="fill:#F5940D;" d="M223.842,182.243c0,3.363,1.052,6.089,2.35,6.089c1.298,0,2.35-2.726,2.35-6.089
								c0-3.363-1.052-6.089-2.35-6.089C224.894,176.154,223.842,178.88,223.842,182.243z"/>
						</g>
						<circle style="fill:#F5940D;" cx="226.193" cy="198.528" r="7.714"/>
						<path style="opacity:0.5;fill:#F5940D;" d="M226.193,194.195c-1.571,0-2.846-1.262-2.869-2.827
							c0.887-0.356,1.855-0.554,2.869-0.554c1.014,0,1.982,0.198,2.869,0.554C229.038,192.932,227.764,194.195,226.193,194.195z"/>
						<circle style="fill:#F5940D;" cx="226.193" cy="190.828" r="2.35"/>
					</g>
				</g>
				<g>
					<g>
						<path style="fill:#E9934A;" d="M94.279,154.626c-0.195-0.56-8.811-22.613-21.36-19.18c-4.835,1.323-5.992,6.194-5.785,10.707
							c0.304,6.6,2.654,13.784,5.881,19.535c2.974,5.3,7.351,9.926,13.17,12.021c3.229,1.163,10.336,3.246,12.32-1.017
							c0.714-1.534,0.37-3.407-0.098-4.956C94.507,158.795,94.279,154.626,94.279,154.626z"/>
						<path style="fill:#E9934A;" d="M83.232,168.927c0,0-6.668-0.172-10.786-9.016c-4.117-8.844-3.047-19.772,2.252-19.649
							c5.299,0.123,14.531,14.652,14.531,14.652s-6.073,2.675-1.474,8.32c0,0-9.343-1.468-9.243-7.021
							c0.101-5.553,5.708-5.799,5.708-5.799s-8.131-9.85-11.373-7.001C69.605,146.262,74.035,167.191,83.232,168.927z"/>
					</g>
					<g>
						<g>
							<circle style="fill:#F5940D;" cx="91.233" cy="198.528" r="7.714"/>
							<circle style="fill:#F5940D;" cx="91.233" cy="190.828" r="2.35"/>
							<path style="fill:#F5940D;" d="M93.584,182.243c0,3.363-1.052,6.089-2.35,6.089c-1.298,0-2.35-2.726-2.35-6.089
								c0-3.363,1.052-6.089,2.35-6.089C92.531,176.154,93.584,178.88,93.584,182.243z"/>
						</g>
						<circle style="fill:#F5940D;" cx="91.233" cy="198.528" r="7.714"/>
						<path style="opacity:0.5;fill:#F5940D;" d="M91.233,194.195c1.571,0,2.845-1.262,2.869-2.827
							c-0.887-0.356-1.855-0.554-2.869-0.554c-1.014,0-1.982,0.198-2.869,0.554C88.388,192.932,89.662,194.195,91.233,194.195z"/>
						<circle style="fill:#F5940D;" cx="91.233" cy="190.828" r="2.35"/>
					</g>
				</g>
			</g>
			<path style="fill:#E9934A;" d="M230.9,104.5c0,0,5.988,121.679-72.167,129.446h-0.04C80.538,226.179,86.526,104.5,86.526,104.5
				s3.831-64.565,74.34-64.565S230.9,104.5,230.9,104.5z"/>
			<g>
				<g>
					<path style="fill:#B25538;" d="M159.032,209.207c15.312,0,20.938-11.622,20.938-11.622s-12.452-4.612-14.297-4.981
						c-1.845-0.369-6.918,1.937-6.918,1.937h-0.087c0,0-5.073-2.306-6.918-1.937c-1.845,0.369-14.297,4.981-14.297,4.981
						s5.627,11.622,20.939,11.622H159.032z"/>
					<path style="fill:#603913;" d="M181.971,197.203c-2.079,1.057-4.416,1.42-6.713,1.614c-2.263,0.195-4.639,0.166-6.91,0.008
						c-2.042,0.905-6.608,1.762-9.633,1.627c-3.332-0.083-6.639-0.75-9.752-1.924c-2.905,0.484-6.987,0.427-10.223-0.227
						c-1.127-0.247-2.25-0.561-3.287-1.102c-0.027-0.014-0.038-0.048-0.024-0.075c1.126,0.061,2.301,0.314,3.436,0.409
						c3.38,0.425,6.784,0.516,10.188,0.544c1.582,0.484,3.188,0.911,4.817,1.183c4.89,0.922,9.887,0.221,14.526-1.469
						c2.229,0.115,4.564,0.147,6.787,0.009c2.261-0.167,4.491-0.392,6.746-0.709C181.993,197.075,182.032,197.174,181.971,197.203
						L181.971,197.203z"/>
				</g>
				<g style="opacity:0.55;">
					<path style="opacity:0.74;fill:#E07B70;" d="M168.952,175.994c0,4.29-4.584,7.768-10.239,7.768
						c-5.655,0-10.239-3.478-10.239-7.768c0-4.29,4.584-16.469,10.239-16.469C164.368,159.525,168.952,171.704,168.952,175.994z"/>
					<g style="opacity:0.5;">
						<path style="fill:#E1A566;" d="M158.713,181.165c-5.136,0-9.377-2.872-10.114-6.613c-0.082,0.541-0.125,1.029-0.125,1.442
							c0,4.29,4.584,7.768,10.239,7.768c5.655,0,10.239-3.478,10.239-7.768c0-0.413-0.043-0.901-0.125-1.442
							C168.09,178.292,163.849,181.165,158.713,181.165z"/>
					</g>
					<path style="fill:#B25538;" d="M149.282,178.896c-0.016,0.014-0.026,0.028-0.042,0.042c1.135,2.098,3.444,3.734,6.308,4.44
						C154.704,181.979,151.476,177.012,149.282,178.896z"/>
					<path style="fill:#B25538;" d="M168.152,178.896c0.016,0.014,0.027,0.028,0.042,0.042c-1.135,2.098-3.444,3.734-6.308,4.44
						C162.731,181.979,165.958,177.012,168.152,178.896z"/>
				</g>
				<g>
					<g>
						<g>
							<path style="fill:#FFFFFF;" d="M108.167,144.286c0,0-1.49,4.131,2.099,6.569c3.589,2.438,6.951,4.869,16.746,4.982
								c0,0,8.202-1.91,10.641-4.046l-0.004-1.306c0,0-5.946-11.846-16.087-11.201C111.421,139.928,108.167,144.286,108.167,144.286
								z"/>
							<path style="fill:#231F20;" d="M137.017,143.762c-4.58-6.142-12.308-9.733-19.957-8.999
								c-2.531,0.187-5.044,0.694-7.521,1.403c-0.067,0.019-0.137-0.019-0.157-0.087c-0.018-0.062,0.014-0.126,0.071-0.151
								c2.374-1.047,4.925-1.744,7.538-2.002c6.551-0.701,13.304,1.85,17.818,6.637c0.898,0.946,1.736,1.945,2.423,3.064
								c0.036,0.059,0.018,0.137-0.041,0.173C137.13,143.837,137.054,143.819,137.017,143.762L137.017,143.762z"/>
							<g>
								<path style="fill:#231F20;" d="M126.951,156.025c-6.865,0.777-15.499-0.812-18.984-7.466c-0.111-0.201,0.19-0.393,0.322-0.2
									c4.336,5.649,11.854,7.227,18.628,7.289C127.146,155.631,127.189,156.001,126.951,156.025L126.951,156.025z"/>
								<g>
									<path style="fill:#231F20;" d="M116.447,154.676c0,0-2.83-0.314-4.991,2.673c0,0-0.157-2.437,2.948-3.537L116.447,154.676z
										"/>
									<path style="fill:#231F20;" d="M113.731,153.565c0,0-1.972-0.441-3.728,1.497c0,0,0.078-1.731,2.354-2.266L113.731,153.565
										z"/>
									<path style="fill:#231F20;" d="M111.729,152.51c0,0-1.308-0.641-2.865,0.423c0,0,0.346-1.2,2.031-1.193L111.729,152.51z"/>
								</g>
							</g>
							<g>
								
									<ellipse transform="matrix(0.9732 -0.2298 0.2298 0.9732 -30.3824 32.4189)" style="fill:#726658;" cx="124.024" cy="146.68" rx="8.575" ry="8.575"/>
								<path style="fill:#241F20;" d="M119.107,146.68c0,2.715,2.201,4.917,4.917,4.917c2.716,0,4.917-2.201,4.917-4.917
									s-2.201-4.917-4.917-4.917C121.309,141.763,119.107,143.964,119.107,146.68z"/>
								<path style="fill:#FFFFFF;" d="M125.366,144.93c0,1.708,1.385,3.093,3.093,3.093c1.708,0,3.093-1.385,3.093-3.093
									c0-1.708-1.385-3.093-3.093-3.093C126.751,141.837,125.366,143.222,125.366,144.93z"/>
							</g>
							<path style="fill:#231F20;" d="M135.139,153.217l4.417-0.068c0,0-4.825-16.31-18.145-16.31
								c-7.611,0-12.368,2.718-12.368,2.718l-5.165-0.136l2.786,2.039c0,0-2.175,2.786-8.223,2.514c0,0,5.641,4.485,10.669,1.699
								s9.582-6.728,17.193-4.621c7.611,2.107,11.349,10.737,11.349,10.737L135.139,153.217z"/>
						</g>
						<g>
							<path style="fill:#231F20;" d="M96.089,123.739c0,0,6.828-5.53,16.765-2.664c9.937,2.865,26.567,13.422,26.567,13.422
								l3.678-5.714l-2.229-3.913c0,0,1.19,2.463,0.176,4.332l-1.65-4.893l-26.215-9.911
								C113.18,114.397,103.127,114.942,96.089,123.739z"/>
							<polygon style="fill:#231F20;" points="144.016,129.697 140.619,134.789 141.886,135.061 144.472,131.062 							"/>
						</g>
					</g>
					<g>
						<g>
							<path style="fill:#FFFFFF;" d="M209.258,144.286c0,0,1.49,4.131-2.099,6.569c-3.589,2.438-6.951,4.869-16.746,4.982
								c0,0-8.202-1.91-10.641-4.046l0.005-1.306c0,0,5.946-11.846,16.087-11.201C206.005,139.928,209.258,144.286,209.258,144.286z
								"/>
							<path style="fill:#231F20;" d="M180.409,143.762c4.58-6.142,12.308-9.733,19.957-8.999c2.531,0.187,5.044,0.694,7.521,1.403
								c0.067,0.019,0.137-0.019,0.157-0.087c0.018-0.062-0.014-0.126-0.071-0.151c-2.374-1.047-4.925-1.744-7.538-2.002
								c-6.551-0.701-13.304,1.85-17.818,6.637c-0.898,0.946-1.736,1.945-2.423,3.064c-0.036,0.059-0.018,0.137,0.042,0.173
								C180.296,143.837,180.372,143.819,180.409,143.762L180.409,143.762z"/>
							<g>
								<path style="fill:#231F20;" d="M190.475,156.025c6.865,0.777,15.499-0.812,18.984-7.466c0.111-0.201-0.19-0.393-0.322-0.2
									c-4.336,5.649-11.854,7.227-18.628,7.289C190.279,155.631,190.237,156.001,190.475,156.025L190.475,156.025z"/>
								<g>
									<path style="fill:#231F20;" d="M200.978,154.676c0,0,2.83-0.314,4.991,2.673c0,0,0.157-2.437-2.948-3.537L200.978,154.676z
										"/>
									<path style="fill:#231F20;" d="M203.695,153.565c0,0,1.971-0.441,3.728,1.497c0,0-0.078-1.731-2.354-2.266L203.695,153.565
										z"/>
									<path style="fill:#231F20;" d="M205.697,152.51c0,0,1.308-0.641,2.865,0.423c0,0-0.346-1.2-2.031-1.193L205.697,152.51z"/>
								</g>
							</g>
							<g>
								
									<ellipse transform="matrix(0.1602 -0.9871 0.9871 0.1602 17.6364 314.0882)" style="fill:#726658;" cx="193.402" cy="146.68" rx="8.575" ry="8.575"/>
								<path style="fill:#241F20;" d="M198.318,146.68c0,2.715-2.201,4.917-4.917,4.917s-4.917-2.201-4.917-4.917
									s2.201-4.917,4.917-4.917S198.318,143.964,198.318,146.68z"/>
								<path style="fill:#FFFFFF;" d="M192.059,144.93c0,1.708-1.385,3.093-3.093,3.093c-1.708,0-3.093-1.385-3.093-3.093
									c0-1.708,1.385-3.093,3.093-3.093C190.674,141.837,192.059,143.222,192.059,144.93z"/>
							</g>
							<path style="fill:#231F20;" d="M182.286,153.217l-4.417-0.068c0,0,4.825-16.31,18.145-16.31
								c7.611,0,12.368,2.718,12.368,2.718l5.165-0.136l-2.786,2.039c0,0,2.175,2.786,8.223,2.514c0,0-5.64,4.485-10.669,1.699
								c-5.029-2.786-9.582-6.728-17.193-4.621c-7.611,2.107-11.349,10.737-11.349,10.737L182.286,153.217z"/>
						</g>
						<g>
							<path style="fill:#231F20;" d="M221.337,123.739c0,0-6.828-5.53-16.765-2.664c-9.937,2.865-26.567,13.422-26.567,13.422
								l-3.678-5.714l2.229-3.913c0,0-1.19,2.463-0.176,4.332l1.651-4.893l26.215-9.911
								C204.245,114.397,214.299,114.942,221.337,123.739z"/>
							<polygon style="fill:#231F20;" points="173.41,129.697 176.807,134.789 175.539,135.061 172.954,131.062 							"/>
						</g>
					</g>
				</g>
				<path style="fill:#BC2B29;" d="M163.111,122.012c0,2.429-1.969,4.398-4.398,4.398s-4.398-1.969-4.398-4.398
					c0-2.429,1.969-4.398,4.398-4.398S163.111,119.583,163.111,122.012z"/>
			</g>
			<g>
				<path style="fill:#282E3F;" d="M158.686,16.58c-0.544-4.355-35.397-18.485-69.829,15.948
					c-34.432,34.432-23.83,64.148-23.83,64.148s-10.668,14.311-9.107,27.321c1.561,13.01,10.668,20.556,26.02,17.433
					c15.352-3.122,41.372-40.071,50.479-62.448c9.107-22.377,26.28-10.928,26.28-10.928h0.029c0,0,17.173-11.449,26.28,10.928
					c9.107,22.377,35.127,59.326,50.479,62.448s24.459-4.423,26.02-17.433c1.561-13.01-9.107-27.321-9.107-27.321
					s10.602-29.716-23.83-64.148C194.137-1.905,159.284,12.224,158.74,16.58"/>
				<path style="fill:#282E3F;" d="M158.686,20.89h0.054c0.544-4.355,35.397-18.485,69.829,15.948
					c20.05,20.05,24.829,38.5,25.324,50.416c0.491-11.449-2.664-32.066-25.324-54.726C194.137-1.905,159.284,12.224,158.74,16.58
					h-0.054c-0.544-4.355-35.397-18.485-69.829,15.948c-22.66,22.66-25.815,43.277-25.324,54.726
					c0.495-11.916,5.274-30.366,25.324-50.416C123.288,2.405,158.141,16.535,158.686,20.89z"/>
				<g style="opacity:0.4;">
					<path style="fill:#282E3F;" d="M55.919,123.996c1.561,13.01,10.668,20.556,26.02,17.433
						c15.352-3.122,41.372-40.071,50.479-62.448c8.924-21.927,25.59-11.377,26.257-10.944c0.001-0.001,0.002-0.002,0.003-0.002
						c-30.471-26.456-53.779,48.978-77.527,53.207c-23.753,4.23-16.125-24.567-16.125-24.567S54.358,110.987,55.919,123.996z"/>
					<path style="fill:#282E3F;" d="M236.204,121.243c-23.748-4.229-47.055-79.663-77.527-53.207
						c0.007,0.006,0.014,0.011,0.021,0.017h0.029c0,0,17.173-11.449,26.28,10.929c9.107,22.377,35.127,59.326,50.479,62.448
						s24.459-4.423,26.02-17.433c1.561-13.01-9.107-27.321-9.107-27.321s0.007-0.019,0.019-0.056l-0.09,0.056
						C252.329,96.675,259.957,125.473,236.204,121.243z"/>
				</g>
				<g>
					<path style="fill:#F5940D;" d="M157.933,71.146c-0.708-9.427-0.408-19.285-0.188-28.747c0.212-9.436,0.513-19.24,0.089-28.649
						l0.356-0.061c0.304,1.167,0.587,2.345,0.857,3.529c2.036,10.673,2.137,21.618,1.796,32.444c-0.208,4.81-0.6,9.607-1.271,14.377
						c-0.342,2.386-0.725,4.768-1.279,7.134L157.933,71.146L157.933,71.146z"/>
					<g>
						<g>
							<circle style="fill:#C94545;" cx="158.469" cy="80.832" r="7.714"/>
							<circle style="fill:#C94545;" cx="158.469" cy="73.132" r="2.35"/>
						</g>
						<circle style="fill:#C94545;" cx="158.469" cy="80.832" r="7.714"/>
						<path style="opacity:0.5;fill:#C94545;" d="M158.469,76.499c1.571,0,2.845-1.262,2.869-2.827
							c-0.887-0.356-1.855-0.554-2.869-0.554c-1.014,0-1.982,0.198-2.869,0.554C155.623,75.237,156.898,76.499,158.469,76.499z"/>
						<circle style="fill:#C94545;" cx="158.469" cy="73.132" r="2.35"/>
					</g>
				</g>
			</g>
		</g>
	</g>
</g>
</svg>
